<?xml version="1.0" encoding="utf-8"?>
<!-- Generator: Adobe Illustrator 21.1.0, SVG Export Plug-In . SVG Version: 6.00 Build 0)  -->
<svg version="1.1" id="Layer_1" xmlns="http://www.w3.org/2000/svg" xmlns:xlink="http://www.w3.org/1999/xlink" x="0px" y="0px"
	 viewBox="0 0 1935 1185" enable-background="new 0 0 1935 1185" xml:space="preserve">
<path fill="none" stroke="#000000" stroke-width="6" d="M1331.7,223.3c0,0-11.1,25.4,14.4,36.5l454.3,197.5c0,0,25.4,11.1,36.5-14.4
	l84.4-194.2c0,0,11.1-25.4-14.4-36.5L1452.7,14.7c0,0-25.4-11.1-36.5,14.4L1331.7,223.3z"/>
<path fill="none" stroke="#000000" stroke-width="3" d="M1386.7,258.7c0,0-1.1,2.5,1.4,3.7L1766.9,427c0,0,2.5,1.1,3.7-1.4
	l92.8-213.5c0,0,1.1-2.5-1.4-3.7L1483.2,43.8c0,0-2.5-1.1-3.7,1.4L1386.7,258.7z"/>
<ellipse transform="matrix(0.3987 -0.9171 0.9171 0.3987 805.7095 1890.7803)" fill="none" stroke="#000000" stroke-width="3" cx="1844.8" cy="330.9" rx="19.1" ry="19.1"/>
<path fill="none" stroke="#000000" stroke-width="6" d="M28.9,313.8c0,0-26.1,9.5-16.6,35.6l169.4,465.5c0,0,9.5,26.1,35.6,16.6
	l199-72.4c0,0,26.1-9.5,16.6-35.6L263.5,257.9c0,0-9.5-26.1-35.6-16.6L28.9,313.8z"/>
<path fill="none" stroke="#000000" stroke-width="3" d="M41.1,378.1c0,0-2.6,0.9-1.7,3.6l141.3,388.1c0,0,0.9,2.6,3.6,1.7L403,691.8
	c0,0,2.6-0.9,1.7-3.6L263.4,300.1c0,0-0.9-2.6-3.6-1.7L41.1,378.1z"/>
<ellipse transform="matrix(0.9397 -0.342 0.342 0.9397 -241.6267 149.8215)" fill="none" stroke="#000000" stroke-width="3" cx="304" cy="760.1" rx="19.1" ry="19.1"/>
<path fill="none" stroke="#000000" stroke-width="6" d="M513.8,1028.2c0,0-6.2,27,20.8,33.3l482.7,111.4c0,0,27,6.2,33.3-20.8
	l47.6-206.4c0,0,6.2-27-20.8-33.3L594.7,801c0,0-27-6.2-33.3,20.8L513.8,1028.2z"/>
<path fill="none" stroke="#000000" stroke-width="3" d="M574.4,1052.9c0,0-0.6,2.7,2.1,3.3l402.4,92.9c0,0,2.7,0.6,3.3-2.1
	l52.4-226.8c0,0,0.6-2.7-2.1-3.3L630.1,824c0,0-2.7-0.6-3.3,2.1L574.4,1052.9z"/>
<ellipse transform="matrix(0.2249 -0.9744 0.9744 0.2249 -209.3691 1817.7858)" fill="none" stroke="#000000" stroke-width="3" cx="1037.9" cy="1040.5" rx="19.1" ry="19.1"/>
<path fill="none" stroke="#000000" stroke-width="6" d="M720.7,760.4c0,0,12.1,12.8,24.9,0.7l416.9-395.7c0,0,12.8-12.1,0.7-24.9
	L891.4,54c0,0-12.1-12.8-24.9-0.7L449.5,449c0,0-12.8,12.1-0.7,24.9L720.7,760.4z"/>
<path fill="none" stroke="#000000" stroke-width="3" d="M1117.8,373.1c0,0,2.6-2.4,0.1-5L861.4,97.8c0,0-2.4-2.6-5-0.1L494.6,441
	c0,0-2.6,2.4-0.1,5L751,716.3c0,0,2.4,2.6,5,0.1L1117.8,373.1z"/>
<ellipse transform="matrix(0.7254 -0.6884 0.6884 0.7254 -245.9759 580.4453)" fill="none" stroke="#000000" stroke-width="3" cx="604.4" cy="598.5" rx="13.5" ry="13.5"/>
<path fill="none" stroke="#000000" stroke-width="6" d="M1854.4,854.8c0,0,12.8-12.1,0.7-24.9L1459.4,413c0,0-12.1-12.8-24.9-0.7
	L1148,684.1c0,0-12.8,12.1-0.7,24.9L1543,1126c0,0,12.1,12.8,24.9,0.7L1854.4,854.8z"/>
<path fill="none" stroke="#000000" stroke-width="3" d="M1467.1,457.7c0,0-2.4-2.6-5-0.1l-270.3,256.5c0,0-2.6,2.4-0.1,5
	l343.4,361.8c0,0,2.4,2.6,5,0.1l270.3-256.5c0,0,2.6-2.4,0.1-5L1467.1,457.7z"/>
<ellipse transform="matrix(0.7254 -0.6884 0.6884 0.7254 -203.6336 1431.7521)" fill="none" stroke="#000000" stroke-width="3" cx="1692.5" cy="971.1" rx="13.5" ry="13.5"/>
</svg>
