<?xml version="1.0" encoding="utf-8"?>
<!-- Generator: Adobe Illustrator 21.1.0, SVG Export Plug-In . SVG Version: 6.00 Build 0)  -->
<svg version="1.1" id="Layer_1" xmlns="http://www.w3.org/2000/svg" xmlns:xlink="http://www.w3.org/1999/xlink" x="0px" y="0px"
	 viewBox="0 0 1840 869" enable-background="new 0 0 1840 869" xml:space="preserve">
<circle fill="#E5DCDC" cx="339.2" cy="64.9" r="6"/>
<circle fill="#E5DCDC" cx="281.2" cy="64.9" r="6"/>
<circle fill="#E5DCDC" cx="223.1" cy="64.9" r="6"/>
<circle fill="#E5DCDC" cx="165.1" cy="64.9" r="6"/>
<circle fill="#E5DCDC" cx="107.1" cy="64.9" r="6"/>
<circle fill="#E5DCDC" cx="49" cy="64.9" r="6"/>
<circle fill="#E5DCDC" cx="745.4" cy="64.9" r="6"/>
<circle fill="#E5DCDC" cx="687.4" cy="64.9" r="6"/>
<circle fill="#E5DCDC" cx="629.3" cy="64.9" r="6"/>
<circle fill="#E5DCDC" cx="571.3" cy="64.9" r="6"/>
<circle fill="#E5DCDC" cx="513.3" cy="64.9" r="6"/>
<circle fill="#E5DCDC" cx="455.2" cy="64.9" r="6"/>
<circle fill="#E5DCDC" cx="397.2" cy="64.9" r="6"/>
<circle fill="#E5DCDC" cx="1151.6" cy="64.9" r="6"/>
<circle fill="#E5DCDC" cx="1093.6" cy="64.9" r="6"/>
<circle fill="#E5DCDC" cx="1035.6" cy="64.9" r="6"/>
<circle fill="#E5DCDC" cx="977.5" cy="64.9" r="6"/>
<circle fill="#E5DCDC" cx="919.5" cy="64.9" r="6"/>
<circle fill="#E5DCDC" cx="861.5" cy="64.9" r="6"/>
<circle fill="#E5DCDC" cx="803.4" cy="64.9" r="6"/>
<circle fill="#E5DCDC" cx="1557.8" cy="64.9" r="6"/>
<circle fill="#E5DCDC" cx="1499.8" cy="64.9" r="6"/>
<circle fill="#E5DCDC" cx="1441.8" cy="64.9" r="6"/>
<circle fill="#E5DCDC" cx="1383.8" cy="64.9" r="6"/>
<circle fill="#E5DCDC" cx="1325.7" cy="64.9" r="6"/>
<circle fill="#E5DCDC" cx="1267.7" cy="64.9" r="6"/>
<circle fill="#E5DCDC" cx="1790" cy="64.9" r="6"/>
<circle fill="#E5DCDC" cx="1731.9" cy="64.9" r="6"/>
<circle fill="#E5DCDC" cx="1673.9" cy="64.9" r="6"/>
<circle fill="#E5DCDC" cx="1615.9" cy="64.9" r="6"/>
<circle fill="#E5DCDC" cx="1209.7" cy="64.9" r="6"/>
<circle fill="#E5DCDC" cx="339.2" cy="7" r="6"/>
<circle fill="#E5DCDC" cx="281.2" cy="7" r="6"/>
<circle fill="#E5DCDC" cx="223.1" cy="7" r="6"/>
<circle fill="#E5DCDC" cx="165.1" cy="7" r="6"/>
<circle fill="#E5DCDC" cx="107.1" cy="7" r="6"/>
<circle fill="#E5DCDC" cx="49" cy="7" r="6"/>
<circle fill="#E5DCDC" cx="745.4" cy="7" r="6"/>
<circle fill="#E5DCDC" cx="687.4" cy="7" r="6"/>
<circle fill="#E5DCDC" cx="629.3" cy="7" r="6"/>
<circle fill="#E5DCDC" cx="571.3" cy="7" r="6"/>
<circle fill="#E5DCDC" cx="513.3" cy="7" r="6"/>
<circle fill="#E5DCDC" cx="455.2" cy="7" r="6"/>
<circle fill="#E5DCDC" cx="397.2" cy="7" r="6"/>
<circle fill="#E5DCDC" cx="1151.6" cy="7" r="6"/>
<circle fill="#E5DCDC" cx="1093.6" cy="7" r="6"/>
<circle fill="#E5DCDC" cx="1035.6" cy="7" r="6"/>
<circle fill="#E5DCDC" cx="977.5" cy="7" r="6"/>
<circle fill="#E5DCDC" cx="919.5" cy="7" r="6"/>
<circle fill="#E5DCDC" cx="861.5" cy="7" r="6"/>
<circle fill="#E5DCDC" cx="803.4" cy="7" r="6"/>
<circle fill="#E5DCDC" cx="1557.8" cy="7" r="6"/>
<circle fill="#E5DCDC" cx="1499.8" cy="7" r="6"/>
<circle fill="#E5DCDC" cx="1441.8" cy="7" r="6"/>
<circle fill="#E5DCDC" cx="1383.8" cy="7" r="6"/>
<circle fill="#E5DCDC" cx="1325.7" cy="7" r="6"/>
<circle fill="#E5DCDC" cx="1267.7" cy="7" r="6"/>
<circle fill="#E5DCDC" cx="1790" cy="7" r="6"/>
<circle fill="#E5DCDC" cx="1731.9" cy="7" r="6"/>
<circle fill="#E5DCDC" cx="1673.9" cy="7" r="6"/>
<circle fill="#E5DCDC" cx="1615.9" cy="7" r="6"/>
<circle fill="#E5DCDC" cx="1209.7" cy="7" r="6"/>
<circle fill="#E5DCDC" cx="339.2" cy="180.6" r="6"/>
<circle fill="#E5DCDC" cx="281.2" cy="180.6" r="6"/>
<circle fill="#E5DCDC" cx="223.1" cy="180.6" r="6"/>
<circle fill="#E5DCDC" cx="165.1" cy="180.6" r="6"/>
<circle fill="#E5DCDC" cx="107.1" cy="180.6" r="6"/>
<circle fill="#E5DCDC" cx="49" cy="180.6" r="6"/>
<circle fill="#E5DCDC" cx="745.4" cy="180.6" r="6"/>
<circle fill="#E5DCDC" cx="687.4" cy="180.6" r="6"/>
<circle fill="#E5DCDC" cx="629.3" cy="180.6" r="6"/>
<circle fill="#E5DCDC" cx="571.3" cy="180.6" r="6"/>
<circle fill="#E5DCDC" cx="513.3" cy="180.6" r="6"/>
<circle fill="#E5DCDC" cx="455.2" cy="180.6" r="6"/>
<circle fill="#E5DCDC" cx="397.2" cy="180.6" r="6"/>
<circle fill="#E5DCDC" cx="1151.6" cy="180.6" r="6"/>
<circle fill="#E5DCDC" cx="1093.6" cy="180.6" r="6"/>
<circle fill="#E5DCDC" cx="1035.6" cy="180.6" r="6"/>
<circle fill="#E5DCDC" cx="977.5" cy="180.6" r="6"/>
<circle fill="#E5DCDC" cx="919.5" cy="180.6" r="6"/>
<circle fill="#E5DCDC" cx="861.5" cy="180.6" r="6"/>
<circle fill="#E5DCDC" cx="803.4" cy="180.6" r="6"/>
<circle fill="#E5DCDC" cx="1557.8" cy="180.6" r="6"/>
<circle fill="#E5DCDC" cx="1499.8" cy="180.6" r="6"/>
<circle fill="#E5DCDC" cx="1441.8" cy="180.6" r="6"/>
<circle fill="#E5DCDC" cx="1383.8" cy="180.6" r="6"/>
<circle fill="#E5DCDC" cx="1325.7" cy="180.6" r="6"/>
<circle fill="#E5DCDC" cx="1267.7" cy="180.6" r="6"/>
<circle fill="#E5DCDC" cx="1790" cy="180.6" r="6"/>
<circle fill="#E5DCDC" cx="1731.9" cy="180.6" r="6"/>
<circle fill="#E5DCDC" cx="1673.9" cy="180.6" r="6"/>
<circle fill="#E5DCDC" cx="1615.9" cy="180.6" r="6"/>
<circle fill="#E5DCDC" cx="1209.7" cy="180.6" r="6"/>
<circle fill="#E5DCDC" cx="339.2" cy="238.4" r="6"/>
<circle fill="#E5DCDC" cx="281.2" cy="238.4" r="6"/>
<circle fill="#E5DCDC" cx="223.1" cy="238.4" r="6"/>
<circle fill="#E5DCDC" cx="165.1" cy="238.4" r="6"/>
<circle fill="#E5DCDC" cx="107.1" cy="238.4" r="6"/>
<circle fill="#E5DCDC" cx="49" cy="238.4" r="6"/>
<circle fill="#E5DCDC" cx="745.4" cy="238.4" r="6"/>
<circle fill="#E5DCDC" cx="687.4" cy="238.4" r="6"/>
<circle fill="#E5DCDC" cx="629.3" cy="238.4" r="6"/>
<circle fill="#E5DCDC" cx="571.3" cy="238.4" r="6"/>
<circle fill="#E5DCDC" cx="513.3" cy="238.4" r="6"/>
<circle fill="#E5DCDC" cx="455.2" cy="238.4" r="6"/>
<circle fill="#E5DCDC" cx="397.2" cy="238.4" r="6"/>
<circle fill="#E5DCDC" cx="1151.6" cy="238.4" r="6"/>
<circle fill="#E5DCDC" cx="1093.6" cy="238.4" r="6"/>
<circle fill="#E5DCDC" cx="1035.6" cy="238.4" r="6"/>
<circle fill="#E5DCDC" cx="977.5" cy="238.4" r="6"/>
<circle fill="#E5DCDC" cx="919.5" cy="238.4" r="6"/>
<circle fill="#E5DCDC" cx="861.5" cy="238.4" r="6"/>
<circle fill="#E5DCDC" cx="803.4" cy="238.4" r="6"/>
<circle fill="#E5DCDC" cx="1557.8" cy="238.4" r="6"/>
<circle fill="#E5DCDC" cx="1499.8" cy="238.4" r="6"/>
<circle fill="#E5DCDC" cx="1441.8" cy="238.4" r="6"/>
<circle fill="#E5DCDC" cx="1383.8" cy="238.4" r="6"/>
<circle fill="#E5DCDC" cx="1325.7" cy="238.4" r="6"/>
<circle fill="#E5DCDC" cx="1267.7" cy="238.4" r="6"/>
<circle fill="#E5DCDC" cx="1790" cy="238.4" r="6"/>
<circle fill="#E5DCDC" cx="1731.9" cy="238.4" r="6"/>
<circle fill="#E5DCDC" cx="1673.9" cy="238.4" r="6"/>
<circle fill="#E5DCDC" cx="1615.9" cy="238.4" r="6"/>
<circle fill="#E5DCDC" cx="1209.7" cy="238.4" r="6"/>
<circle fill="#E5DCDC" cx="339.2" cy="296.3" r="6"/>
<circle fill="#E5DCDC" cx="281.2" cy="296.3" r="6"/>
<circle fill="#E5DCDC" cx="223.1" cy="296.3" r="6"/>
<circle fill="#E5DCDC" cx="165.1" cy="296.3" r="6"/>
<circle fill="#E5DCDC" cx="107.1" cy="296.3" r="6"/>
<circle fill="#E5DCDC" cx="49" cy="296.3" r="6"/>
<circle fill="#E5DCDC" cx="745.4" cy="296.3" r="6"/>
<circle fill="#E5DCDC" cx="687.4" cy="296.3" r="6"/>
<circle fill="#E5DCDC" cx="629.3" cy="296.3" r="6"/>
<circle fill="#E5DCDC" cx="571.3" cy="296.3" r="6"/>
<circle fill="#E5DCDC" cx="513.3" cy="296.3" r="6"/>
<circle fill="#E5DCDC" cx="455.2" cy="296.3" r="6"/>
<circle fill="#E5DCDC" cx="397.2" cy="296.3" r="6"/>
<circle fill="#E5DCDC" cx="1151.6" cy="296.3" r="6"/>
<circle fill="#E5DCDC" cx="1093.6" cy="296.3" r="6"/>
<circle fill="#E5DCDC" cx="1035.6" cy="296.3" r="6"/>
<circle fill="#E5DCDC" cx="977.5" cy="296.3" r="6"/>
<circle fill="#E5DCDC" cx="919.5" cy="296.3" r="6"/>
<circle fill="#E5DCDC" cx="861.5" cy="296.3" r="6"/>
<circle fill="#E5DCDC" cx="803.4" cy="296.3" r="6"/>
<circle fill="#E5DCDC" cx="1557.8" cy="296.3" r="6"/>
<circle fill="#E5DCDC" cx="1499.8" cy="296.3" r="6"/>
<circle fill="#E5DCDC" cx="1441.8" cy="296.3" r="6"/>
<circle fill="#E5DCDC" cx="1383.8" cy="296.3" r="6"/>
<circle fill="#E5DCDC" cx="1325.7" cy="296.3" r="6"/>
<circle fill="#E5DCDC" cx="1267.7" cy="296.3" r="6"/>
<circle fill="#E5DCDC" cx="1790" cy="296.3" r="6"/>
<circle fill="#E5DCDC" cx="1731.9" cy="296.3" r="6"/>
<circle fill="#E5DCDC" cx="1673.9" cy="296.3" r="6"/>
<circle fill="#E5DCDC" cx="1615.9" cy="296.3" r="6"/>
<circle fill="#E5DCDC" cx="1209.7" cy="296.3" r="6"/>
<circle fill="#E5DCDC" cx="339.2" cy="354.1" r="6"/>
<circle fill="#E5DCDC" cx="281.2" cy="354.1" r="6"/>
<circle fill="#E5DCDC" cx="223.1" cy="354.1" r="6"/>
<circle fill="#E5DCDC" cx="165.1" cy="354.1" r="6"/>
<circle fill="#E5DCDC" cx="107.1" cy="354.1" r="6"/>
<circle fill="#E5DCDC" cx="49" cy="354.1" r="6"/>
<circle fill="#E5DCDC" cx="745.4" cy="354.1" r="6"/>
<circle fill="#E5DCDC" cx="687.4" cy="354.1" r="6"/>
<circle fill="#E5DCDC" cx="629.3" cy="354.1" r="6"/>
<circle fill="#E5DCDC" cx="571.3" cy="354.1" r="6"/>
<circle fill="#E5DCDC" cx="513.3" cy="354.1" r="6"/>
<circle fill="#E5DCDC" cx="455.2" cy="354.1" r="6"/>
<circle fill="#E5DCDC" cx="397.2" cy="354.1" r="6"/>
<circle fill="#E5DCDC" cx="1151.6" cy="354.1" r="6"/>
<circle fill="#E5DCDC" cx="1093.6" cy="354.1" r="6"/>
<circle fill="#E5DCDC" cx="1035.6" cy="354.1" r="6"/>
<circle fill="#E5DCDC" cx="977.5" cy="354.1" r="6"/>
<circle fill="#E5DCDC" cx="919.5" cy="354.1" r="6"/>
<circle fill="#E5DCDC" cx="861.5" cy="354.1" r="6"/>
<circle fill="#E5DCDC" cx="803.4" cy="354.1" r="6"/>
<circle fill="#E5DCDC" cx="1557.8" cy="354.1" r="6"/>
<circle fill="#E5DCDC" cx="1499.8" cy="354.1" r="6"/>
<circle fill="#E5DCDC" cx="1441.8" cy="354.1" r="6"/>
<circle fill="#E5DCDC" cx="1383.8" cy="354.1" r="6"/>
<circle fill="#E5DCDC" cx="1325.7" cy="354.1" r="6"/>
<circle fill="#E5DCDC" cx="1267.7" cy="354.1" r="6"/>
<circle fill="#E5DCDC" cx="1790" cy="354.1" r="6"/>
<circle fill="#E5DCDC" cx="1731.9" cy="354.1" r="6"/>
<circle fill="#E5DCDC" cx="1673.9" cy="354.1" r="6"/>
<circle fill="#E5DCDC" cx="1615.9" cy="354.1" r="6"/>
<circle fill="#E5DCDC" cx="1209.7" cy="354.1" r="6"/>
<circle fill="#E5DCDC" cx="339.2" cy="412" r="6"/>
<circle fill="#E5DCDC" cx="281.2" cy="412" r="6"/>
<circle fill="#E5DCDC" cx="223.1" cy="412" r="6"/>
<circle fill="#E5DCDC" cx="165.1" cy="412" r="6"/>
<circle fill="#E5DCDC" cx="107.1" cy="412" r="6"/>
<circle fill="#E5DCDC" cx="49" cy="412" r="6"/>
<circle fill="#E5DCDC" cx="745.4" cy="412" r="6"/>
<circle fill="#E5DCDC" cx="687.4" cy="412" r="6"/>
<circle fill="#E5DCDC" cx="629.3" cy="412" r="6"/>
<circle fill="#E5DCDC" cx="571.3" cy="412" r="6"/>
<circle fill="#E5DCDC" cx="513.3" cy="412" r="6"/>
<circle fill="#E5DCDC" cx="455.2" cy="412" r="6"/>
<circle fill="#E5DCDC" cx="397.2" cy="412" r="6"/>
<circle fill="#E5DCDC" cx="1151.6" cy="412" r="6"/>
<circle fill="#E5DCDC" cx="1093.6" cy="412" r="6"/>
<circle fill="#E5DCDC" cx="1035.6" cy="412" r="6"/>
<circle fill="#E5DCDC" cx="977.5" cy="412" r="6"/>
<circle fill="#E5DCDC" cx="919.5" cy="412" r="6"/>
<circle fill="#E5DCDC" cx="861.5" cy="412" r="6"/>
<circle fill="#E5DCDC" cx="803.4" cy="412" r="6"/>
<circle fill="#E5DCDC" cx="1557.8" cy="412" r="6"/>
<circle fill="#E5DCDC" cx="1499.8" cy="412" r="6"/>
<circle fill="#E5DCDC" cx="1441.8" cy="412" r="6"/>
<circle fill="#E5DCDC" cx="1383.8" cy="412" r="6"/>
<circle fill="#E5DCDC" cx="1325.7" cy="412" r="6"/>
<circle fill="#E5DCDC" cx="1267.7" cy="412" r="6"/>
<circle fill="#E5DCDC" cx="1790" cy="412" r="6"/>
<circle fill="#E5DCDC" cx="1731.9" cy="412" r="6"/>
<circle fill="#E5DCDC" cx="1673.9" cy="412" r="6"/>
<circle fill="#E5DCDC" cx="1615.9" cy="412" r="6"/>
<circle fill="#E5DCDC" cx="1209.7" cy="412" r="6"/>
<circle fill="#E5DCDC" cx="339.2" cy="469.9" r="6"/>
<circle fill="#E5DCDC" cx="281.2" cy="469.9" r="6"/>
<circle fill="#E5DCDC" cx="223.1" cy="469.9" r="6"/>
<circle fill="#E5DCDC" cx="165.1" cy="469.9" r="6"/>
<circle fill="#E5DCDC" cx="107.1" cy="469.9" r="6"/>
<circle fill="#E5DCDC" cx="49" cy="469.9" r="6"/>
<circle fill="#E5DCDC" cx="745.4" cy="469.9" r="6"/>
<circle fill="#E5DCDC" cx="687.4" cy="469.9" r="6"/>
<circle fill="#E5DCDC" cx="629.3" cy="469.9" r="6"/>
<circle fill="#E5DCDC" cx="571.3" cy="469.9" r="6"/>
<circle fill="#E5DCDC" cx="513.3" cy="469.9" r="6"/>
<circle fill="#E5DCDC" cx="455.2" cy="469.9" r="6"/>
<circle fill="#E5DCDC" cx="397.2" cy="469.9" r="6"/>
<circle fill="#E5DCDC" cx="1151.6" cy="469.9" r="6"/>
<circle fill="#E5DCDC" cx="1093.6" cy="469.9" r="6"/>
<circle fill="#E5DCDC" cx="1035.6" cy="469.9" r="6"/>
<circle fill="#E5DCDC" cx="977.5" cy="469.9" r="6"/>
<circle fill="#E5DCDC" cx="919.5" cy="469.9" r="6"/>
<circle fill="#E5DCDC" cx="861.5" cy="469.9" r="6"/>
<circle fill="#E5DCDC" cx="803.4" cy="469.9" r="6"/>
<circle fill="#E5DCDC" cx="1557.8" cy="469.9" r="6"/>
<circle fill="#E5DCDC" cx="1499.8" cy="469.9" r="6"/>
<circle fill="#E5DCDC" cx="1441.8" cy="469.9" r="6"/>
<circle fill="#E5DCDC" cx="1383.8" cy="469.9" r="6"/>
<circle fill="#E5DCDC" cx="1325.7" cy="469.9" r="6"/>
<circle fill="#E5DCDC" cx="1267.7" cy="469.9" r="6"/>
<circle fill="#E5DCDC" cx="1790" cy="469.9" r="6"/>
<circle fill="#E5DCDC" cx="1731.9" cy="469.9" r="6"/>
<circle fill="#E5DCDC" cx="1673.9" cy="469.9" r="6"/>
<circle fill="#E5DCDC" cx="1615.9" cy="469.9" r="6"/>
<circle fill="#E5DCDC" cx="1209.7" cy="469.9" r="6"/>
<circle fill="#E5DCDC" cx="339.2" cy="527.7" r="6"/>
<circle fill="#E5DCDC" cx="281.2" cy="527.7" r="6"/>
<circle fill="#E5DCDC" cx="223.1" cy="527.7" r="6"/>
<circle fill="#E5DCDC" cx="165.1" cy="527.7" r="6"/>
<circle fill="#E5DCDC" cx="107.1" cy="527.7" r="6"/>
<circle fill="#E5DCDC" cx="49" cy="527.7" r="6"/>
<circle fill="#E5DCDC" cx="745.4" cy="527.7" r="6"/>
<circle fill="#E5DCDC" cx="687.4" cy="527.7" r="6"/>
<circle fill="#E5DCDC" cx="629.3" cy="527.7" r="6"/>
<circle fill="#E5DCDC" cx="571.3" cy="527.7" r="6"/>
<circle fill="#E5DCDC" cx="513.3" cy="527.7" r="6"/>
<circle fill="#E5DCDC" cx="455.2" cy="527.7" r="6"/>
<circle fill="#E5DCDC" cx="397.2" cy="527.7" r="6"/>
<circle fill="#E5DCDC" cx="1151.6" cy="527.7" r="6"/>
<circle fill="#E5DCDC" cx="1093.6" cy="527.7" r="6"/>
<circle fill="#E5DCDC" cx="1035.6" cy="527.7" r="6"/>
<circle fill="#E5DCDC" cx="977.5" cy="527.7" r="6"/>
<circle fill="#E5DCDC" cx="919.5" cy="527.7" r="6"/>
<circle fill="#E5DCDC" cx="861.5" cy="527.7" r="6"/>
<circle fill="#E5DCDC" cx="803.4" cy="527.7" r="6"/>
<circle fill="#E5DCDC" cx="1557.8" cy="527.7" r="6"/>
<circle fill="#E5DCDC" cx="1499.8" cy="527.7" r="6"/>
<circle fill="#E5DCDC" cx="1441.8" cy="527.7" r="6"/>
<circle fill="#E5DCDC" cx="1383.8" cy="527.7" r="6"/>
<circle fill="#E5DCDC" cx="1325.7" cy="527.7" r="6"/>
<circle fill="#E5DCDC" cx="1267.7" cy="527.7" r="6"/>
<circle fill="#E5DCDC" cx="1790" cy="527.7" r="6"/>
<circle fill="#E5DCDC" cx="1731.9" cy="527.7" r="6"/>
<circle fill="#E5DCDC" cx="1673.9" cy="527.7" r="6"/>
<circle fill="#E5DCDC" cx="1615.9" cy="527.7" r="6"/>
<circle fill="#E5DCDC" cx="1209.7" cy="527.7" r="6"/>
<circle fill="#E5DCDC" cx="339.2" cy="585.6" r="6"/>
<circle fill="#E5DCDC" cx="281.2" cy="585.6" r="6"/>
<circle fill="#E5DCDC" cx="223.1" cy="585.6" r="6"/>
<circle fill="#E5DCDC" cx="165.1" cy="585.6" r="6"/>
<circle fill="#E5DCDC" cx="107.1" cy="585.6" r="6"/>
<circle fill="#E5DCDC" cx="49" cy="585.6" r="6"/>
<circle fill="#E5DCDC" cx="745.4" cy="585.6" r="6"/>
<circle fill="#E5DCDC" cx="687.4" cy="585.6" r="6"/>
<circle fill="#E5DCDC" cx="629.3" cy="585.6" r="6"/>
<circle fill="#E5DCDC" cx="571.3" cy="585.6" r="6"/>
<circle fill="#E5DCDC" cx="513.3" cy="585.6" r="6"/>
<circle fill="#E5DCDC" cx="455.2" cy="585.6" r="6"/>
<circle fill="#E5DCDC" cx="397.2" cy="585.6" r="6"/>
<circle fill="#E5DCDC" cx="1151.6" cy="585.6" r="6"/>
<circle fill="#E5DCDC" cx="1093.6" cy="585.6" r="6"/>
<circle fill="#E5DCDC" cx="1035.6" cy="585.6" r="6"/>
<circle fill="#E5DCDC" cx="977.5" cy="585.6" r="6"/>
<circle fill="#E5DCDC" cx="919.5" cy="585.6" r="6"/>
<circle fill="#E5DCDC" cx="861.5" cy="585.6" r="6"/>
<circle fill="#E5DCDC" cx="803.4" cy="585.6" r="6"/>
<circle fill="#E5DCDC" cx="1557.8" cy="585.6" r="6"/>
<circle fill="#E5DCDC" cx="1499.8" cy="585.6" r="6"/>
<circle fill="#E5DCDC" cx="1441.8" cy="585.6" r="6"/>
<circle fill="#E5DCDC" cx="1383.8" cy="585.6" r="6"/>
<circle fill="#E5DCDC" cx="1325.7" cy="585.6" r="6"/>
<circle fill="#E5DCDC" cx="1267.7" cy="585.6" r="6"/>
<circle fill="#E5DCDC" cx="1790" cy="585.6" r="6"/>
<circle fill="#E5DCDC" cx="1731.9" cy="585.6" r="6"/>
<circle fill="#E5DCDC" cx="1673.9" cy="585.6" r="6"/>
<circle fill="#E5DCDC" cx="1615.9" cy="585.6" r="6"/>
<circle fill="#E5DCDC" cx="1209.7" cy="585.6" r="6"/>
<circle fill="#E5DCDC" cx="339.2" cy="643.4" r="6"/>
<circle fill="#E5DCDC" cx="281.2" cy="643.4" r="6"/>
<circle fill="#E5DCDC" cx="223.1" cy="643.4" r="6"/>
<circle fill="#E5DCDC" cx="165.1" cy="643.4" r="6"/>
<circle fill="#E5DCDC" cx="107.1" cy="643.4" r="6"/>
<circle fill="#E5DCDC" cx="49" cy="643.4" r="6"/>
<circle fill="#E5DCDC" cx="745.4" cy="643.4" r="6"/>
<circle fill="#E5DCDC" cx="687.4" cy="643.4" r="6"/>
<circle fill="#E5DCDC" cx="629.3" cy="643.4" r="6"/>
<circle fill="#E5DCDC" cx="571.3" cy="643.4" r="6"/>
<circle fill="#E5DCDC" cx="513.3" cy="643.4" r="6"/>
<circle fill="#E5DCDC" cx="455.2" cy="643.4" r="6"/>
<circle fill="#E5DCDC" cx="397.2" cy="643.4" r="6"/>
<circle fill="#E5DCDC" cx="1151.6" cy="643.4" r="6"/>
<circle fill="#E5DCDC" cx="1093.6" cy="643.4" r="6"/>
<circle fill="#E5DCDC" cx="1035.6" cy="643.4" r="6"/>
<circle fill="#E5DCDC" cx="977.5" cy="643.4" r="6"/>
<circle fill="#E5DCDC" cx="919.5" cy="643.4" r="6"/>
<circle fill="#E5DCDC" cx="861.5" cy="643.4" r="6"/>
<circle fill="#E5DCDC" cx="803.4" cy="643.4" r="6"/>
<circle fill="#E5DCDC" cx="1557.8" cy="643.4" r="6"/>
<circle fill="#E5DCDC" cx="1499.8" cy="643.4" r="6"/>
<circle fill="#E5DCDC" cx="1441.8" cy="643.4" r="6"/>
<circle fill="#E5DCDC" cx="1383.8" cy="643.4" r="6"/>
<circle fill="#E5DCDC" cx="1325.7" cy="643.4" r="6"/>
<circle fill="#E5DCDC" cx="1267.7" cy="643.4" r="6"/>
<circle fill="#E5DCDC" cx="1790" cy="643.4" r="6"/>
<circle fill="#E5DCDC" cx="1731.9" cy="643.4" r="6"/>
<circle fill="#E5DCDC" cx="1673.9" cy="643.4" r="6"/>
<circle fill="#E5DCDC" cx="1615.9" cy="643.4" r="6"/>
<circle fill="#E5DCDC" cx="1209.7" cy="643.4" r="6"/>
<circle fill="#E5DCDC" cx="339.2" cy="701.3" r="6"/>
<circle fill="#E5DCDC" cx="281.2" cy="701.3" r="6"/>
<circle fill="#E5DCDC" cx="223.1" cy="701.3" r="6"/>
<circle fill="#E5DCDC" cx="165.1" cy="701.3" r="6"/>
<circle fill="#E5DCDC" cx="107.1" cy="701.3" r="6"/>
<circle fill="#E5DCDC" cx="49" cy="701.3" r="6"/>
<circle fill="#E5DCDC" cx="745.4" cy="701.3" r="6"/>
<circle fill="#E5DCDC" cx="687.4" cy="701.3" r="6"/>
<circle fill="#E5DCDC" cx="629.3" cy="701.3" r="6"/>
<circle fill="#E5DCDC" cx="571.3" cy="701.3" r="6"/>
<circle fill="#E5DCDC" cx="513.3" cy="701.3" r="6"/>
<circle fill="#E5DCDC" cx="455.2" cy="701.3" r="6"/>
<circle fill="#E5DCDC" cx="397.2" cy="701.3" r="6"/>
<circle fill="#E5DCDC" cx="1151.6" cy="701.3" r="6"/>
<circle fill="#E5DCDC" cx="1093.6" cy="701.3" r="6"/>
<circle fill="#E5DCDC" cx="1035.6" cy="701.3" r="6"/>
<circle fill="#E5DCDC" cx="977.5" cy="701.3" r="6"/>
<circle fill="#E5DCDC" cx="919.5" cy="701.3" r="6"/>
<circle fill="#E5DCDC" cx="861.5" cy="701.3" r="6"/>
<circle fill="#E5DCDC" cx="803.4" cy="701.3" r="6"/>
<circle fill="#E5DCDC" cx="1557.8" cy="701.3" r="6"/>
<circle fill="#E5DCDC" cx="1499.8" cy="701.3" r="6"/>
<circle fill="#E5DCDC" cx="1441.8" cy="701.3" r="6"/>
<circle fill="#E5DCDC" cx="1383.8" cy="701.3" r="6"/>
<circle fill="#E5DCDC" cx="1325.7" cy="701.3" r="6"/>
<circle fill="#E5DCDC" cx="1267.7" cy="701.3" r="6"/>
<circle fill="#E5DCDC" cx="1790" cy="701.3" r="6"/>
<circle fill="#E5DCDC" cx="1731.9" cy="701.3" r="6"/>
<circle fill="#E5DCDC" cx="1673.9" cy="701.3" r="6"/>
<circle fill="#E5DCDC" cx="1615.9" cy="701.3" r="6"/>
<circle fill="#E5DCDC" cx="1209.7" cy="701.3" r="6"/>
<circle fill="#E5DCDC" cx="339.2" cy="759.1" r="6"/>
<circle fill="#E5DCDC" cx="281.2" cy="759.1" r="6"/>
<circle fill="#E5DCDC" cx="223.1" cy="759.1" r="6"/>
<circle fill="#E5DCDC" cx="165.1" cy="759.1" r="6"/>
<circle fill="#E5DCDC" cx="107.1" cy="759.1" r="6"/>
<circle fill="#E5DCDC" cx="49" cy="759.1" r="6"/>
<circle fill="#E5DCDC" cx="745.4" cy="759.1" r="6"/>
<circle fill="#E5DCDC" cx="687.4" cy="759.1" r="6"/>
<circle fill="#E5DCDC" cx="629.3" cy="759.1" r="6"/>
<circle fill="#E5DCDC" cx="571.3" cy="759.1" r="6"/>
<circle fill="#E5DCDC" cx="513.3" cy="759.1" r="6"/>
<circle fill="#E5DCDC" cx="455.2" cy="759.1" r="6"/>
<circle fill="#E5DCDC" cx="397.2" cy="759.1" r="6"/>
<circle fill="#E5DCDC" cx="1151.6" cy="759.1" r="6"/>
<circle fill="#E5DCDC" cx="1093.6" cy="759.1" r="6"/>
<circle fill="#E5DCDC" cx="1035.6" cy="759.1" r="6"/>
<circle fill="#E5DCDC" cx="977.5" cy="759.1" r="6"/>
<circle fill="#E5DCDC" cx="919.5" cy="759.1" r="6"/>
<circle fill="#E5DCDC" cx="861.5" cy="759.1" r="6"/>
<circle fill="#E5DCDC" cx="803.4" cy="759.1" r="6"/>
<circle fill="#E5DCDC" cx="1557.8" cy="759.1" r="6"/>
<circle fill="#E5DCDC" cx="1499.8" cy="759.1" r="6"/>
<circle fill="#E5DCDC" cx="1441.8" cy="759.1" r="6"/>
<circle fill="#E5DCDC" cx="1383.8" cy="759.1" r="6"/>
<circle fill="#E5DCDC" cx="1325.7" cy="759.1" r="6"/>
<circle fill="#E5DCDC" cx="1267.7" cy="759.1" r="6"/>
<circle fill="#E5DCDC" cx="1790" cy="759.1" r="6"/>
<circle fill="#E5DCDC" cx="1731.9" cy="759.1" r="6"/>
<circle fill="#E5DCDC" cx="1673.9" cy="759.1" r="6"/>
<circle fill="#E5DCDC" cx="1615.9" cy="759.1" r="6"/>
<circle fill="#E5DCDC" cx="1209.7" cy="759.1" r="6"/>
<circle fill="#E5DCDC" cx="339.2" cy="817" r="6"/>
<circle fill="#E5DCDC" cx="281.2" cy="817" r="6"/>
<circle fill="#E5DCDC" cx="223.1" cy="817" r="6"/>
<circle fill="#E5DCDC" cx="165.1" cy="817" r="6"/>
<circle fill="#E5DCDC" cx="107.1" cy="817" r="6"/>
<circle fill="#E5DCDC" cx="49" cy="817" r="6"/>
<circle fill="#E5DCDC" cx="745.4" cy="817" r="6"/>
<circle fill="#E5DCDC" cx="687.4" cy="817" r="6"/>
<circle fill="#E5DCDC" cx="629.3" cy="817" r="6"/>
<circle fill="#E5DCDC" cx="571.3" cy="817" r="6"/>
<circle fill="#E5DCDC" cx="513.3" cy="817" r="6"/>
<circle fill="#E5DCDC" cx="455.2" cy="817" r="6"/>
<circle fill="#E5DCDC" cx="397.2" cy="817" r="6"/>
<circle fill="#E5DCDC" cx="1151.6" cy="817" r="6"/>
<circle fill="#E5DCDC" cx="1093.6" cy="817" r="6"/>
<circle fill="#E5DCDC" cx="1035.6" cy="817" r="6"/>
<circle fill="#E5DCDC" cx="977.5" cy="817" r="6"/>
<circle fill="#E5DCDC" cx="919.5" cy="817" r="6"/>
<circle fill="#E5DCDC" cx="861.5" cy="817" r="6"/>
<circle fill="#E5DCDC" cx="803.4" cy="817" r="6"/>
<circle fill="#E5DCDC" cx="1557.8" cy="817" r="6"/>
<circle fill="#E5DCDC" cx="1499.8" cy="817" r="6"/>
<circle fill="#E5DCDC" cx="1441.8" cy="817" r="6"/>
<circle fill="#E5DCDC" cx="1383.8" cy="817" r="6"/>
<circle fill="#E5DCDC" cx="1325.7" cy="817" r="6"/>
<circle fill="#E5DCDC" cx="1267.7" cy="817" r="6"/>
<circle fill="#E5DCDC" cx="1790" cy="817" r="6"/>
<circle fill="#E5DCDC" cx="1731.9" cy="817" r="6"/>
<circle fill="#E5DCDC" cx="1673.9" cy="817" r="6"/>
<circle fill="#E5DCDC" cx="1615.9" cy="817" r="6"/>
<circle fill="#E5DCDC" cx="1209.7" cy="817" r="6"/>
<circle fill="#E5DCDC" cx="339.2" cy="122.7" r="6"/>
<circle fill="#E5DCDC" cx="281.2" cy="122.7" r="6"/>
<circle fill="#E5DCDC" cx="223.1" cy="122.7" r="6"/>
<circle fill="#E5DCDC" cx="165.1" cy="122.7" r="6"/>
<circle fill="#E5DCDC" cx="107.1" cy="122.7" r="6"/>
<circle fill="#E5DCDC" cx="49" cy="122.7" r="6"/>
<circle fill="#E5DCDC" cx="745.4" cy="122.7" r="6"/>
<circle fill="#E5DCDC" cx="687.4" cy="122.7" r="6"/>
<circle fill="#E5DCDC" cx="629.3" cy="122.7" r="6"/>
<circle fill="#E5DCDC" cx="571.3" cy="122.7" r="6"/>
<circle fill="#E5DCDC" cx="513.3" cy="122.7" r="6"/>
<circle fill="#E5DCDC" cx="455.2" cy="122.7" r="6"/>
<circle fill="#E5DCDC" cx="397.2" cy="122.7" r="6"/>
<circle fill="#E5DCDC" cx="1151.6" cy="122.7" r="6"/>
<circle fill="#E5DCDC" cx="1093.6" cy="122.7" r="6"/>
<circle fill="#E5DCDC" cx="1035.6" cy="122.7" r="6"/>
<circle fill="#E5DCDC" cx="977.5" cy="122.7" r="6"/>
<circle fill="#E5DCDC" cx="919.5" cy="122.7" r="6"/>
<circle fill="#E5DCDC" cx="861.5" cy="122.7" r="6"/>
<circle fill="#E5DCDC" cx="803.4" cy="122.7" r="6"/>
<circle fill="#E5DCDC" cx="1557.8" cy="122.7" r="6"/>
<circle fill="#E5DCDC" cx="1499.8" cy="122.7" r="6"/>
<circle fill="#E5DCDC" cx="1441.8" cy="122.7" r="6"/>
<circle fill="#E5DCDC" cx="1383.8" cy="122.7" r="6"/>
<circle fill="#E5DCDC" cx="1325.7" cy="122.7" r="6"/>
<circle fill="#E5DCDC" cx="1267.7" cy="122.7" r="6"/>
<circle fill="#E5DCDC" cx="1790" cy="122.7" r="6"/>
<circle fill="#E5DCDC" cx="1731.9" cy="122.7" r="6"/>
<circle fill="#E5DCDC" cx="1673.9" cy="122.7" r="6"/>
<circle fill="#E5DCDC" cx="1615.9" cy="122.7" r="6"/>
<circle fill="#E5DCDC" cx="1209.7" cy="122.7" r="6"/>
</svg>
