<?xml version="1.0" encoding="utf-8"?>
<!-- Generator: Adobe Illustrator 21.1.0, SVG Export Plug-In . SVG Version: 6.00 Build 0)  -->
<svg version="1.1" xmlns="http://www.w3.org/2000/svg" xmlns:xlink="http://www.w3.org/1999/xlink" x="0px" y="0px"
	 viewBox="0 0 900 545" enable-background="new 0 0 900 545" xml:space="preserve">
<g id="Layer_1" display="none">
</g>
<g id="Layer_2" display="none">
	<rect x="1" y="1" display="inline" fill="#0022FF" width="254.1" height="191"/>
	<rect x="644.2" y="1" display="inline" width="254.1" height="191"/>
	<rect x="644.2" y="192" display="inline" fill="#0022FF" width="254.1" height="191"/>
	<circle display="inline" fill="#FFFFFF" cx="771.2" cy="96.5" r="58.5"/>
	<g display="inline">
		<rect x="323.1" y="1" width="254.1" height="279"/>
		<g>
			<circle fill="#0022FF" cx="406" cy="108.5" r="38"/>
			<polygon fill="#FFFFFF" points="484.5,92 440.8,155.1 407.5,109 340,202.5 408,202.5 475,202.5 561,202.5 			"/>
		</g>
	</g>
	<g display="inline">
		<line fill="none" stroke="#FFFFFF" stroke-width="2" stroke-miterlimit="10" x1="38.3" y1="163.9" x2="217.7" y2="29.1"/>
		<line fill="none" stroke="#FFFFFF" stroke-width="2" stroke-miterlimit="10" x1="38.4" y1="29" x2="217.6" y2="164"/>
	</g>
	<rect x="1" y="242" display="inline" width="254.1" height="299"/>
	
		<line display="inline" fill="none" stroke="#FFFFFF" stroke-width="8" stroke-miterlimit="10" x1="34.1" y1="325.2" x2="222.1" y2="325.2"/>
	
		<line display="inline" fill="none" stroke="#FFFFFF" stroke-width="8" stroke-miterlimit="10" x1="34.1" y1="350.6" x2="222.1" y2="350.6"/>
	
		<line display="inline" fill="none" stroke="#FFFFFF" stroke-width="8" stroke-miterlimit="10" x1="34.1" y1="375.9" x2="222.1" y2="375.9"/>
	
		<line display="inline" fill="none" stroke="#FFFFFF" stroke-width="8" stroke-miterlimit="10" x1="677.1" y1="277.2" x2="865.1" y2="277.2"/>
	
		<line display="inline" fill="none" stroke="#FFFFFF" stroke-width="8" stroke-miterlimit="10" x1="677.1" y1="302.6" x2="865.1" y2="302.6"/>
	
		<line display="inline" fill="none" stroke="#FFFFFF" stroke-width="8" stroke-miterlimit="10" x1="677.1" y1="327.9" x2="771" y2="327.9"/>
	
		<line display="inline" fill="none" stroke="#FFFFFF" stroke-width="14" stroke-miterlimit="10" x1="677.1" y1="237.9" x2="771" y2="237.9"/>
	
		<line display="inline" fill="none" stroke="#FFFFFF" stroke-width="8" stroke-miterlimit="10" x1="34.1" y1="401.2" x2="137.1" y2="401.2"/>
	<rect x="34.1" y="443.2" display="inline" fill="#0022FF" width="77" height="22"/>
</g>
<g id="Layer_3" display="none">
	<polygon display="inline" stroke="#FFFFFF" stroke-miterlimit="10" points="896,457 474,590 474,99 896,99 	"/>
	
		<rect x="3.8" y="5" transform="matrix(6.123234e-17 -1 1 6.123234e-17 -1.2403 116.9299)" display="inline" width="108.2" height="108.2"/>
	<rect x="420" y="43" display="inline" fill="#CCCCCC" width="422" height="236"/>
	
		<rect x="3.8" y="159.4" transform="matrix(6.123234e-17 -1 1 6.123234e-17 -155.6552 271.3447)" display="inline" fill="#0022FF" width="108.2" height="108.2"/>
	
		<rect x="3.8" y="313.8" transform="matrix(6.123234e-17 -1 1 6.123234e-17 -310.07 425.7596)" display="inline" fill="#CCCCCC" width="108.2" height="108.2"/>
	<rect x="352" y="2" display="inline" fill="#4D4D4D" width="420" height="68"/>
	<circle display="inline" fill="#0022FF" cx="420" cy="70" r="27"/>
	
		<line display="inline" fill="none" stroke="#FFFFFF" stroke-width="8" stroke-miterlimit="10" x1="513" y1="351" x2="660" y2="351"/>
	
		<line display="inline" fill="none" stroke="#FFFFFF" stroke-width="8" stroke-miterlimit="10" x1="513" y1="378" x2="660" y2="378"/>
	
		<line display="inline" fill="none" stroke="#FFFFFF" stroke-width="8" stroke-miterlimit="10" x1="513" y1="405" x2="660" y2="405"/>
	
		<line display="inline" fill="none" stroke="#FFFFFF" stroke-width="8" stroke-miterlimit="10" x1="708" y1="351" x2="855" y2="351"/>
	
		<line display="inline" fill="none" stroke="#FFFFFF" stroke-width="8" stroke-miterlimit="10" x1="708" y1="378" x2="855" y2="378"/>
	
		<line display="inline" fill="none" stroke="#FFFFFF" stroke-width="8" stroke-miterlimit="10" x1="708" y1="405" x2="798" y2="405"/>
	<polygon display="inline" fill="#FFFFFF" points="637.7,112.5 571.9,207.6 521.7,138.1 420,279 522.5,279 623.4,279 753,279 	"/>
	<g display="inline">
		<path fill="#4D4D4D" d="M204.9,387.1c-20.6,0-37.2-16.7-37.2-37.2s16.7-37.2,37.2-37.2h57.4c20.6,0,37.2,16.7,37.2,37.2
			s-16.7,37.2-37.2,37.2H204.9z"/>
		<circle fill="#FFFFFF" cx="204.8" cy="349.8" r="30.7"/>
	</g>
	<g display="inline">
		<path fill="#0022FF" d="M204.9,510c-20.6,0-37.2-16.7-37.2-37.2s16.7-37.2,37.2-37.2h57.4c20.6,0,37.2,16.7,37.2,37.2
			S282.9,510,262.3,510H204.9z"/>
		<circle fill="#FFFFFF" cx="260.4" cy="472.8" r="30.7"/>
	</g>
	<g display="inline">
		<path fill="#0022FF" d="M277.3,58.3c0,24.2-26.4,72.9-43.1,72.9s-44.5-48.8-44.5-72.9s19.6-43.8,43.8-43.8S277.3,34.1,277.3,58.3z
			"/>
		<circle fill="#FFFFFF" cx="233.9" cy="59.3" r="33"/>
	</g>
	<g display="inline">
		<circle fill="none" stroke="#0022FF" stroke-width="4" stroke-miterlimit="10" cx="233.7" cy="217.9" r="40.3"/>
		<g>
			<line fill="none" stroke="#0022FF" stroke-width="3" stroke-miterlimit="10" x1="233.7" y1="197.7" x2="233.7" y2="238"/>
			<line fill="none" stroke="#0022FF" stroke-width="3" stroke-miterlimit="10" x1="213.5" y1="217.9" x2="253.8" y2="217.9"/>
		</g>
	</g>
</g>
<g id="Layer_4">
	<g>
		<defs>
			<rect id="SVGID_1_" x="297.4" y="117.6" width="593.1" height="418.8"/>
		</defs>
		<clipPath id="SVGID_2_">
			<use xlink:href="#SVGID_1_"  overflow="visible"/>
		</clipPath>
		<path clip-path="url(#SVGID_2_)" d="M890.5,129.6c0,0,0-12.1-12.1-12.1H309.5c0,0-12.1,0-12.1,12.1v394.6c0,0,0,12.1,12.1,12.1
			h568.9c0,0,12.1,0,12.1-12.1V129.6z"/>
		<path clip-path="url(#SVGID_2_)" fill="#FFFFFF" d="M350.9,142.9c0,0-2.4,0-2.4,2.4v363.4c0,0,0,2.4,2.4,2.4h485.7
			c0,0,2.4,0,2.4-2.4V145.2c0,0,0-2.4-2.4-2.4H350.9z"/>
		<circle clip-path="url(#SVGID_2_)" fill="none" stroke="#FFFFFF" stroke-width="1.385" cx="863.1" cy="326.9" r="13.5"/>
	</g>
	<circle fill="#0022FF" cx="397" cy="192" r="19"/>
	<rect x="693" y="188" width="52" height="10"/>
	<rect x="759" y="188" width="52" height="10"/>
	<rect x="378" y="442" fill="#0022FF" width="98" height="31"/>
	<rect x="506" y="245" fill="#E0D9D9" width="305" height="138"/>
	<rect x="506" y="392" fill="#A1A1A1" width="305" height="24"/>
	<rect x="7" y="7" fill="none" stroke="#A1A1A1" stroke-width="7" stroke-miterlimit="10" width="427" height="275"/>
	<rect x="53" y="54" fill="#0022FF" width="74" height="12"/>
	<rect x="53" y="85" fill="#0022FF" width="19" height="12"/>
	<rect x="53" y="116" fill="#0022FF" width="38" height="12"/>
	<rect x="142" y="116" fill="#959595" width="103" height="12"/>
	<rect x="53" y="166" fill="#0022FF" width="19" height="12"/>
	<rect x="53" y="228" fill="#0022FF" width="19" height="12"/>
	<rect x="53" y="197" fill="#333333" width="60" height="12"/>
	<rect x="82" y="85" fill="#333333" width="90" height="12"/>
	<rect x="185" y="85" fill="#0022FF" width="18" height="12"/>
</g>
</svg>
