<svg class="email-icon" xmlns="http://www.w3.org/2000/svg" width="823.5" height="828.4" viewBox="0 0 823.5 828.4">
<path class="st0" d="M808.3 8.9c10.1 7.3 14.2 17.1 12.3 29.3l-117 702.1c-1.5 8.8-6.4 15.7-14.6 20.6-4.3 2.4-9 3.7-14.2 3.7-3.4 0-7-.8-11-2.3L422.9 664 286.7 813.4c-5.5 6.4-12.6 9.6-21.5 9.6-4.3 0-7.8-.6-10.5-1.8-5.8-2.1-10.4-5.7-13.7-10.7-3.4-5-5-10.6-5-16.7V587.2L20.3 498.9C9 494.7 2.9 486.3 2 473.8c-.9-11.9 4-20.9 14.6-27L777.2 8c10.6-6.4 21-6.1 31.1.9zM651.9 694.1L753 89.4l-655.5 378L251.1 530l394.5-292.1-218.5 364.3 224.8 91.9z"/>
</svg>