<?xml version="1.0" encoding="utf-8"?>
<!-- Generator: Adobe Illustrator 21.1.0, SVG Export Plug-In . SVG Version: 6.00 Build 0)  -->
<svg version="1.1" id="Layer_1" xmlns="http://www.w3.org/2000/svg" xmlns:xlink="http://www.w3.org/1999/xlink" x="0px" y="0px"
	 viewBox="0 0 1920 1080" enable-background="new 0 0 1920 1080" xml:space="preserve">
<g>
	<g>
		<path d="M1153.4,922.6c-10,17.3-19.9,34.5-29.9,51.8c-3.2,5.6,5.4,10.6,8.6,5c10-17.3,19.9-34.5,29.9-51.8
			C1165.2,922,1156.6,917,1153.4,922.6L1153.4,922.6z"/>
	</g>
</g>
<g>
	<g>
		<path d="M1827.8,932.8c15.4,8.2,30.8,16.4,46.2,24.6c0-2.9,0-5.8,0-8.6c-15.4,8-30.8,16-46.2,24.1c-5.7,3-0.7,11.6,5,8.6
			c15.4-8,30.8-16,46.2-24.1c3.3-1.7,3.2-6.9,0-8.6c-15.4-8.2-30.8-16.4-46.2-24.6C1827.1,921.1,1822.1,929.8,1827.8,932.8
			L1827.8,932.8z"/>
	</g>
</g>
<g>
	<g>
		<path d="M1519.9,951.2c-0.3,12-9.7,21.9-21.9,21.9c-11.9,0-21.9-10-21.9-21.9c0-11.9,9.9-21.9,21.9-21.9
			C1510.2,929.3,1519.6,939.2,1519.9,951.2c0.2,6.4,10.2,6.4,10,0c-0.3-13.3-8.2-25.1-20.7-29.8c-12.4-4.7-26.9-0.9-35.5,9.2
			c-8.7,10.3-10.1,25.5-3,37.1c6.9,11.4,20.3,17.2,33.4,14.8c15.1-2.7,25.4-16.3,25.8-31.3C1530.1,944.7,1520.1,944.7,1519.9,951.2z
			"/>
	</g>
</g>
<circle cx="432.1" cy="953" r="10.7"/>
<g>
	<g>
		<path d="M63,930.6c12.2,0.3,22.4,10,22.4,22.4c0,12.5-10.2,22.1-22.4,22.4c-6.4,0.2-6.4,10.2,0,10C80.7,985,95.5,971,95.5,953
			c0-18-14.8-32-32.4-32.4C56.6,920.4,56.6,930.4,63,930.6L63,930.6z"/>
	</g>
</g>
<g>
	<g>
		<path d="M809.1,948.8c-0.3,9.5-9.1,18.4-15.5,24.5c-0.9,0.8-6.9,6.2-7.3,5.8c-0.1-0.1,2.3-0.1,2.2,0c0.2-0.2-0.3-0.1-0.8-0.6
			c-1.2-1.1-2.6-2-3.9-3c-7-6.1-15.1-14.1-17.6-23.3c-3-10.7,5.7-21.9,15.8-24.5C795.8,924.2,808.8,934.9,809.1,948.8
			c0.2,6.4,10.2,6.4,10,0c-0.4-16.4-12.5-30-29-31.6c-15.8-1.5-31,9.9-33.8,25.5c-2.6,14.3,6.7,26.5,16.3,36
			c3.3,3.3,7.2,7.3,11.5,9.3c4.1,1.9,7.4-0.2,10.7-2.7c11-8.4,23.8-22,24.3-36.6C819.3,942.4,809.3,942.4,809.1,948.8z"/>
	</g>
</g>
<g>
	<circle cx="581.1" cy="744.7" r="10.7"/>
	<g>
		<g>
			<path d="M926.2,773.1c10-17.3,19.9-34.5,29.9-51.8c3.2-5.6-5.4-10.6-8.6-5c-10,17.3-19.9,34.5-29.9,51.8
				C914.3,773.7,922.9,778.7,926.2,773.1L926.2,773.1z"/>
		</g>
	</g>
	<g>
		<g>
			<path d="M246.2,719.1c-8.2,15.4-16.4,30.8-24.6,46.2c2.9,0,5.8,0,8.6,0c-8-15.4-16-30.8-24.1-46.2c-3-5.7-11.6-0.7-8.6,5
				c8,15.4,16,30.8,24.1,46.2c1.7,3.3,6.9,3.2,8.6,0c8.2-15.4,16.4-30.8,24.6-46.2C257.8,718.5,249.2,713.4,246.2,719.1L246.2,719.1
				z"/>
		</g>
	</g>
	<circle cx="1647.4" cy="744.7" r="10.7"/>
	<g>
		<g>
			<path d="M1304.5,729.4c6.1,6.5,6.4,18,6.4,26.3c0,3.5-0.6,6.9-0.9,10.3c-0.1,1.4-0.5,0.7-0.1,0.6c0.4,0,2.1-1.3,1.7-1.4
				c-0.8-0.2-2.6,0.6-3.5,0.7c-9,1.1-19.1,0.8-27.7-2.1c-11-3.7-15.7-16.6-11.5-27.1C1274.7,722.1,1293.5,719,1304.5,729.4
				c4.7,4.4,11.8-2.6,7.1-7.1c-12.5-11.9-32.4-12.4-44.9,0c-12.1,12.1-12.3,32.8,0,44.9c9,8.8,24.7,9.6,36.6,9.1c4-0.2,9.4,0,13-2.2
				c3.6-2.2,3.8-7.1,4.2-10.8c1.4-13.2,0.7-30.8-8.9-41C1307.1,717.7,1300.1,724.7,1304.5,729.4z"/>
		</g>
	</g>
</g>
<g>
	<g>
		<g>
			<path d="M894.8,321.3c17.3,10,34.5,19.9,51.8,29.9c5.6,3.2,10.6-5.4,5-8.6c-17.3-10-34.5-19.9-51.8-29.9
				C894.2,309.4,889.2,318.1,894.8,321.3L894.8,321.3z"/>
		</g>
	</g>
	<g>
		<g>
			<path d="M1690,336.7c-16.7,5.1-33.4,10.2-50.1,15.3c2.1,2.1,4.1,4.1,6.2,6.2c5.2-16.6,10.4-33.1,15.6-49.7
				c1.9-6.2-7.7-8.8-9.6-2.7c-5.2,16.6-10.4,33.1-15.6,49.7c-1.1,3.6,2.6,7.2,6.2,6.2c16.7-5.1,33.4-10.2,50.1-15.3
				C1698.8,344.4,1696.2,334.8,1690,336.7L1690,336.7z"/>
		</g>
	</g>
	<g>
		<g>
			<path d="M1300.4,331.9c-0.3,12-9.7,21.9-21.9,21.9c-11.9,0-21.9-10-21.9-21.9c0-11.9,9.9-21.9,21.9-21.9
				C1290.7,310,1300.1,320,1300.4,331.9c0.2,6.4,10.2,6.4,10,0c-0.3-13.3-8.2-25.1-20.7-29.8c-12.4-4.7-26.9-0.9-35.5,9.2
				c-8.7,10.3-10.1,25.5-3,37.1c6.9,11.4,20.3,17.2,33.4,14.8c15.1-2.7,25.4-16.3,25.8-31.3C1310.5,325.5,1300.5,325.5,1300.4,331.9
				z"/>
		</g>
	</g>
	<circle cx="212.5" cy="331.9" r="10.7"/>
	<g>
		<g>
			<path d="M574.6,351.8c-8.4-8.9-8.8-22.9,0-31.7c8.8-8.8,22.8-8.4,31.7,0c4.7,4.4,11.8-2.6,7.1-7.1c-12.8-12.1-33.1-12.7-45.8,0
				c-12.7,12.7-12.1,33.1,0,45.8C572,363.5,579,356.4,574.6,351.8L574.6,351.8z"/>
		</g>
	</g>
</g>
<g>
	<g>
		<g>
			<path d="M384.3,527.7c17.3,10,34.5,19.9,51.8,29.9c5.6,3.2,10.6-5.4,5-8.6c-17.3-10-34.5-19.9-51.8-29.9
				C383.8,515.8,378.8,524.5,384.3,527.7L384.3,527.7z"/>
		</g>
	</g>
	<g>
		<g>
			<path d="M1457.8,518.3c15.4,8.2,30.8,16.4,46.2,24.6c0-2.9,0-5.8,0-8.6c-15.4,8-30.8,16-46.2,24.1c-5.7,3-0.7,11.6,5,8.6
				c15.4-8,30.8-16,46.2-24.1c3.3-1.7,3.2-6.9,0-8.6c-15.4-8.2-30.8-16.4-46.2-24.6C1457.1,506.6,1452.1,515.3,1457.8,518.3
				L1457.8,518.3z"/>
		</g>
	</g>
	<circle cx="62.1" cy="538.3" r="10.7"/>
	<g>
		<g>
			<path d="M1876.2,524.6c-0.3,12.2-10,22.4-22.4,22.4c-12.5,0-22.1-10.2-22.4-22.4c-0.2-6.4-10.2-6.4-10,0
				c0.4,17.6,14.5,32.4,32.4,32.4c18,0,32-14.8,32.4-32.4C1886.3,518.2,1876.3,518.2,1876.2,524.6L1876.2,524.6z"/>
		</g>
	</g>
	<circle cx="1128.4" cy="538.3" r="10.7"/>
	<g>
		<g>
			<path d="M793.1,534.1c-0.3,9.5-9.1,18.4-15.5,24.5c-0.9,0.8-6.9,6.2-7.3,5.8c-0.1-0.1,2.3-0.1,2.2,0c0.2-0.2-0.3-0.1-0.8-0.6
				c-1.2-1.1-2.6-2-3.9-3c-7-6.1-15.1-14.1-17.6-23.3c-3-10.7,5.7-21.9,15.8-24.5C779.8,509.5,792.8,520.2,793.1,534.1
				c0.2,6.4,10.2,6.4,10,0c-0.4-16.4-12.5-30-29-31.6c-15.8-1.5-31,9.9-33.8,25.5c-2.6,14.3,6.7,26.5,16.3,36
				c3.3,3.3,7.2,7.3,11.5,9.3c4.1,1.9,7.4-0.2,10.7-2.7c11-8.4,23.8-22,24.3-36.6C803.3,527.7,793.3,527.7,793.1,534.1z"/>
		</g>
	</g>
</g>
<g>
	<g>
		<g>
			<path d="M1508.4,97.1c-10,17.3-19.9,34.5-29.9,51.8c-3.2,5.6,5.4,10.6,8.6,5c10-17.3,19.9-34.5,29.9-51.8
				C1520.2,96.5,1511.6,91.5,1508.4,97.1L1508.4,97.1z"/>
		</g>
	</g>
	<g>
		<g>
			<path d="M70.6,145.3c-8.4-8.9-8.8-22.9,0-31.7c8.8-8.8,22.8-8.4,31.7,0c4.7,4.4,11.8-2.6,7.1-7.1c-12.8-12.1-33.1-12.7-45.8,0
				c-12.7,12.7-12.1,33.1,0,45.8C68,157.1,75,150,70.6,145.3L70.6,145.3z"/>
		</g>
	</g>
	<g>
		<g>
			<path d="M809.1,121.3c-0.3,9.5-9.1,18.4-15.5,24.5c-0.9,0.8-6.9,6.2-7.3,5.8c-0.1-0.1,2.3-0.1,2.2,0c0.2-0.2-0.3-0.1-0.8-0.6
				c-1.2-1.1-2.6-2-3.9-3c-7-6.1-15.1-14.1-17.6-23.3c-3-10.7,5.7-21.9,15.8-24.5C795.8,96.7,808.8,107.4,809.1,121.3
				c0.2,6.4,10.2,6.4,10,0c-0.4-16.4-12.5-30-29-31.6c-15.8-1.5-31,9.9-33.8,25.5c-2.6,14.3,6.7,26.5,16.3,36
				c3.3,3.3,7.2,7.3,11.5,9.3c4.1,1.9,7.4-0.2,10.7-2.7c11-8.4,23.8-22,24.3-36.6C819.3,114.8,809.3,114.8,809.1,121.3z"/>
		</g>
	</g>
	<g>
		<g>
			<path d="M1164.9,125.5c-0.3,12-9.7,21.9-21.9,21.9c-11.9,0-21.9-10-21.9-21.9c0-11.9,9.9-21.9,21.9-21.9
				C1155.2,103.6,1164.6,113.5,1164.9,125.5c0.2,6.4,10.2,6.4,10,0c-0.3-13.3-8.2-25.1-20.7-29.8c-12.4-4.7-26.9-0.9-35.5,9.2
				c-8.7,10.3-10.1,25.5-3,37.1c6.9,11.4,20.3,17.2,33.4,14.8c15.1-2.7,25.4-16.3,25.8-31.3C1175.1,119,1165.1,119,1164.9,125.5z"/>
		</g>
	</g>
	<g>
		<g>
			<path d="M456.8,145.5c-15.4-8.2-30.8-16.4-46.2-24.6c0,2.9,0,5.8,0,8.6c15.4-8,30.8-16,46.2-24.1c5.7-3,0.7-11.6-5-8.6
				c-15.4,8-30.8,16-46.2,24.1c-3.3,1.7-3.2,6.9,0,8.6c15.4,8.2,30.8,16.4,46.2,24.6C457.4,157.2,462.4,148.5,456.8,145.5
				L456.8,145.5z"/>
		</g>
	</g>
	<circle cx="1864.4" cy="125.5" r="10.7"/>
</g>
</svg>
