<svg class="kba-logo" xmlns="http://www.w3.org/2000/svg" width="957.5" height="636.5" viewBox="0 0 957.5 636.5">
<path class="st0" d="M3.4 2.4h45.1v381.5L209 195.4h56.8l-159.6 193 180.4 236.3H228L50.3 390.1h-1.8v234.5H3.4V2.4zm355.3 274.1h1.8c9.9-33.4 40.6-91.1 119.9-91.1 106.4 0 148.8 113.6 148.8 229.1 0 122.6-50.5 220-165.9 220-104.6 0-149.7-83-149.7-185.8V2.4h45.1v274.1zm104.6 314.8c82.1 0 111.8-90.2 111.8-177.7 0-74-23.4-184.9-100.1-184.9-76.7 0-114.5 104.6-114.5 192.1 0 73.1 18 170.5 102.8 170.5zm444.6-27.1h-1.8c-16.2 23.5-55 70.3-133.5 70.3-84.8 0-109.1-66.7-109.1-114.5 0-138 191.2-137.1 244.4-138 0-22.6 0-75.8-3.6-91.1-10.8-51.4-55-62.2-89.3-62.2-67.6 0-82.1 35.2-89.3 69.4h-55c0-45.1 34.3-112.7 147.9-112.7 132.6 0 134.4 88.4 134.4 146.1v293.1h-45.1v-60.4zm-45.1-138.9c-79.4 0-145.2 30.7-145.2 96.5 0 37 30.7 58.6 64 58.6 45.1 0 86.6-27.1 106.4-59.5 13.5-24.3 19.8-46 19.8-95.6h-45z"/>
</svg>