<?xml version="1.0" encoding="utf-8"?>
<!-- Generator: Adobe Illustrator 21.1.0, SVG Export Plug-In . SVG Version: 6.00 Build 0)  -->
<svg version="1.1" id="Layer_1" xmlns="http://www.w3.org/2000/svg" xmlns:xlink="http://www.w3.org/1999/xlink" x="0px" y="0px"
	 width="380px" height="239px" viewBox="0 0 380 239" enable-background="new 0 0 380 239" xml:space="preserve">
<g>
	<defs>
		<rect id="SVGID_1_" x="2" y="1.4" width="375.1" height="234.6"/>
	</defs>
	<clipPath id="SVGID_2_">
		<use xlink:href="#SVGID_1_"  overflow="visible"/>
	</clipPath>
	<path clip-path="url(#SVGID_2_)" fill="#333333" d="M166.5,1.4L145,22.9l10,10c3.2,3.2,2.9,7.1,2.9,7.1v54c0,0,0.1,4.5-2.6,7.2
		c-2.5,2.5-10,10-10,10l21.5,21.5l21.6-21.4V23L166.5,1.4z"/>
	<path clip-path="url(#SVGID_2_)" fill="#333333" d="M208,4.1c-4.7,4.7-18.8,18.8-18.8,18.8l21.5,21.5l21.5-21.5
		c0,0-13.9-13.9-18.5-18.5C212.9,3.6,210.9,1.2,208,4.1"/>
	<path clip-path="url(#SVGID_2_)" fill="#F38B00" d="M213.4,130.7c4.7-4.7,18.8-18.8,18.8-18.8l-21.5-21.5l-21.5,21.5
		c0,0,13.9,13.9,18.5,18.5C208.5,131.2,210.5,133.6,213.4,130.7"/>
	<g clip-path="url(#SVGID_2_)">
		<path fill="#333333" d="M11.5,174.3c-0.5,0-0.9,0-1.4,0c-0.5,0-1,0-1.4-0.1v8.2c0,0.8,0,1.4,0,2c0,0.6-0.1,1-0.1,1.4l3.1-0.2v1.8
			H2v-1.4c0.8,0,1.4-0.2,1.8-0.4c0.4-0.3,0.7-0.6,0.8-1.1c0.2-0.5,0.3-1,0.3-1.6c0-0.6,0-1.3,0-2.1v-18.3c0-0.6,0-1.1,0-1.6
			c0-0.5,0.1-1,0.1-1.4L2,159.8v-1.9c1.6,0,3.2,0,4.8-0.1s3.2,0,4.9,0c2,0,3.8,0.2,5.2,0.6s2.6,0.9,3.6,1.5c0.9,0.6,1.6,1.4,2,2.4
			c0.4,0.9,0.7,2,0.7,3.1c0,0.8-0.1,1.7-0.3,2.5s-0.6,1.7-1.2,2.5s-1.4,1.5-2.4,2.1c-1,0.6-2.3,1.1-4,1.4c0.6,0.4,1,0.9,1.5,1.5
			c0.4,0.6,0.9,1.3,1.4,2.2l2.9,4.5c0.4,0.6,0.7,1.1,1,1.6s0.7,0.9,1.1,1.3c0.4,0.4,0.8,0.6,1.3,0.8c0.5,0.2,1.1,0.3,1.7,0.3v1.4H21
			c-0.4-0.4-0.8-0.7-1.1-1.1c-0.3-0.4-0.6-0.7-0.9-1.1c-0.3-0.4-0.6-0.8-0.9-1.2c-0.3-0.4-0.6-0.8-0.9-1.3l-2.8-4.5
			c-0.2-0.3-0.4-0.6-0.6-1c-0.2-0.4-0.4-0.7-0.7-1.1c-0.2-0.4-0.5-0.7-0.7-1C12.1,174.9,11.8,174.6,11.5,174.3z M8.6,172.7
			c0.4,0,0.9,0.1,1.3,0.1s0.9,0,1.4,0c1.2,0,2.2-0.2,3.2-0.4c1-0.3,1.8-0.7,2.5-1.2c0.7-0.5,1.2-1.2,1.6-2.1
			c0.4-0.8,0.6-1.9,0.6-3.1c0-2.1-0.6-3.7-1.8-4.8s-3.1-1.6-5.7-1.6c-0.8,0-1.4,0.1-1.8,0.4s-0.7,0.6-0.8,1s-0.3,1-0.3,1.6
			c0,0.6,0,1.3,0,2.1V172.7z"/>
		<path fill="#333333" d="M35.2,182.7c0,0.8,0,1.4,0,2c0,0.5-0.1,1-0.1,1.3l8.1-0.1c0.9,0,1.8-0.1,2.5-0.3c0.7-0.2,1.4-0.6,1.9-1.1
			c0.5-0.5,0.9-1.2,1.2-2c0.3-0.8,0.4-1.9,0.4-3.1h1.4l-0.2,8.3H28.6v-1.4c0.7,0,1.2-0.1,1.6-0.3s0.7-0.5,0.9-0.8
			c0.2-0.3,0.3-0.8,0.4-1.2c0-0.5,0.1-1,0.1-1.6V181v-18.3c0-0.6,0-1.1,0-1.6c0-0.5,0.1-1,0.1-1.4l-3.1,0.2v-1.9H49l0.2,7.4h-1.4
			c0-1.2-0.1-2.2-0.4-3c-0.3-0.8-0.7-1.4-1.2-1.8c-0.5-0.4-1.1-0.7-1.7-0.9c-0.7-0.2-1.4-0.2-2.2-0.2l-3.9,0.1
			c-0.8,0-1.4,0.2-1.8,0.4s-0.8,0.5-1,0.9c-0.2,0.4-0.3,0.9-0.4,1.5c0,0.6-0.1,1.4-0.1,2.2v6.8h7.9l-0.3-3.7h1.9v8.9h-1.4
			c0-0.8-0.1-1.5-0.2-2c-0.1-0.5-0.4-0.9-0.7-1.1c-0.3-0.3-0.7-0.4-1.2-0.5c-0.5-0.1-1.1-0.1-1.7-0.1c-0.2,0-0.4,0-0.6,0
			c-0.2,0-1.4,0-3.7,0.1V182.7z"/>
		<path fill="#333333" d="M65,157.9c2.6,0,4.9,0.3,7,0.9c2.1,0.6,3.9,1.5,5.5,2.7c1.5,1.2,2.7,2.8,3.5,4.7c0.8,1.9,1.3,4.1,1.3,6.6
			c0,1.3-0.2,2.6-0.5,3.8c-0.3,1.2-0.8,2.4-1.4,3.5c-0.6,1.1-1.4,2.1-2.3,3c-0.9,0.9-2,1.7-3.1,2.4c-1.2,0.7-2.5,1.2-4,1.6
			s-3.1,0.6-4.9,0.6H55v-1.4c0.8,0,1.4-0.2,1.8-0.4c0.4-0.3,0.7-0.6,0.8-1.1c0.2-0.5,0.3-1,0.3-1.6c0-0.6,0-1.3,0-2.1v-18.3
			c0-0.6,0-1.1,0-1.6c0-0.5,0.1-1,0.1-1.4l-3.1,0.2v-1.9L65,157.9z M61.6,182.6c0,0.8,0,1.4,0,2c0,0.5-0.1,1-0.1,1.3
			c0.6,0,1.1,0,1.6,0.1c0.5,0,1,0,1.4,0s0.7,0,1,0s0.5,0,0.5,0c1.8,0,3.5-0.3,5-1c1.5-0.7,2.8-1.6,3.8-2.8c1.1-1.2,1.9-2.6,2.5-4.2
			c0.6-1.6,0.9-3.4,0.9-5.3c0-2-0.3-3.8-0.8-5.4c-0.5-1.6-1.4-3-2.5-4.2c-1.1-1.2-2.5-2-4.2-2.7c-1.7-0.6-3.7-0.9-6.1-0.9
			c-0.8,0-1.4,0.1-1.8,0.4s-0.7,0.6-0.8,1c-0.2,0.4-0.3,1-0.3,1.6c0,0.6,0,1.3,0,2.1V182.6z"/>
		<path fill="#333333" d="M96.5,157.9c2.6,0,4.9,0.3,7,0.9c2.1,0.6,3.9,1.5,5.5,2.7c1.5,1.2,2.7,2.8,3.5,4.7
			c0.8,1.9,1.3,4.1,1.3,6.6c0,1.3-0.2,2.6-0.5,3.8c-0.3,1.2-0.8,2.4-1.4,3.5c-0.6,1.1-1.4,2.1-2.3,3c-0.9,0.9-2,1.7-3.1,2.4
			c-1.2,0.7-2.5,1.2-4,1.6s-3.1,0.6-4.9,0.6H86.5v-1.4c0.8,0,1.4-0.2,1.8-0.4c0.4-0.3,0.7-0.6,0.8-1.1c0.2-0.5,0.3-1,0.3-1.6
			c0-0.6,0-1.3,0-2.1v-18.3c0-0.6,0-1.1,0-1.6c0-0.5,0.1-1,0.1-1.4l-3.1,0.2v-1.9L96.5,157.9z M93.2,182.6c0,0.8,0,1.4,0,2
			c0,0.5-0.1,1-0.1,1.3c0.6,0,1.1,0,1.6,0.1c0.5,0,1,0,1.4,0s0.7,0,1,0s0.5,0,0.5,0c1.8,0,3.5-0.3,5-1c1.5-0.7,2.8-1.6,3.8-2.8
			c1.1-1.2,1.9-2.6,2.5-4.2c0.6-1.6,0.9-3.4,0.9-5.3c0-2-0.3-3.8-0.8-5.4c-0.5-1.6-1.4-3-2.5-4.2c-1.1-1.2-2.5-2-4.2-2.7
			c-1.7-0.6-3.7-0.9-6.1-0.9c-0.8,0-1.4,0.1-1.8,0.4s-0.7,0.6-0.8,1c-0.2,0.4-0.3,1-0.3,1.6c0,0.6,0,1.3,0,2.1V182.6z"/>
		<path fill="#333333" d="M121,162.6c0-0.6,0-1.1,0-1.6c0-0.5,0.1-1,0.1-1.4l-3.1,0.2v-1.9h9.5v1.4c-0.8,0-1.4,0.2-1.8,0.4
			c-0.4,0.3-0.7,0.6-0.8,1.1c-0.2,0.5-0.3,1-0.3,1.6c0,0.6,0,1.3,0,2.1v18c0,0.8,0,1.4,0,2c0,0.6-0.1,1-0.1,1.4l3.1-0.2v1.8h-9.5
			v-1.4c0.8,0,1.4-0.2,1.8-0.4c0.4-0.3,0.7-0.6,0.8-1.1c0.2-0.5,0.3-1,0.3-1.6c0-0.6,0-1.3,0-2.1V162.6z"/>
		<path fill="#333333" d="M157.5,188.2h-2l-18.4-24.7H137l0.1,18.2c0,0.7,0,1.4,0,2.1c0,0.7,0,1.4-0.1,2.1l3.1-0.2v1.8h-7.8v-1.4
			c0.6,0,1.2-0.1,1.5-0.3c0.4-0.2,0.7-0.5,0.8-0.8c0.2-0.3,0.3-0.7,0.4-1.1s0.1-0.7,0.1-1.1l0-23.3l-2.8,0.2v-1.9h5l18,24.1h0
			l0-19.4c0-1.2,0-2.2,0.1-3.1l-3,0.2v-1.9h7.8v1.4c-0.8,0-1.4,0.2-1.8,0.4c-0.4,0.3-0.7,0.6-0.8,1.1c-0.2,0.5-0.2,1-0.2,1.6
			c0,0.6,0,1.3,0,2.1L157.5,188.2z"/>
		<path fill="#333333" d="M190.6,186h-1.2c-0.5,0-1.1,0.1-1.9,0.2c-0.8,0.2-1.7,0.4-2.7,0.8c-0.4,0.2-0.9,0.3-1.4,0.5
			s-1.1,0.3-1.6,0.4s-1.1,0.2-1.6,0.2c-0.5,0.1-1,0.1-1.5,0.1c-2.1,0-4.1-0.3-5.8-1c-1.8-0.7-3.3-1.7-4.6-2.9
			c-1.3-1.3-2.3-2.8-3-4.7c-0.7-1.8-1.1-3.9-1.1-6.2c0-1.3,0.1-2.6,0.4-4s0.7-2.6,1.2-3.8s1.2-2.3,2-3.3s1.8-1.9,2.9-2.7
			c1.1-0.8,2.3-1.4,3.7-1.8c1.4-0.4,2.9-0.6,4.5-0.6c0.8,0,1.5,0.1,2.3,0.2c0.8,0.1,1.6,0.3,2.3,0.5c0.8,0.2,1.5,0.4,2.2,0.7
			c0.7,0.3,1.4,0.6,1.9,1l-0.2-2h2.3v9.7h-1.5c-0.1-1.3-0.4-2.5-0.9-3.5s-1.1-1.9-2-2.6s-1.7-1.2-2.8-1.6c-1.1-0.4-2.2-0.6-3.4-0.6
			c-1.5,0-2.9,0.3-4.2,1c-1.3,0.7-2.5,1.6-3.5,2.8c-1,1.2-1.8,2.6-2.3,4.3s-0.9,3.5-0.9,5.4c0,2,0.3,3.8,0.8,5.5
			c0.6,1.7,1.3,3.1,2.3,4.4s2.2,2.2,3.6,2.9c1.4,0.7,2.9,1,4.6,1c0.6,0,1.2,0,1.8-0.1c0.6-0.1,1.2-0.2,1.9-0.4
			c0.6-0.2,1.2-0.4,1.9-0.7c0.6-0.3,1.2-0.6,1.7-1v-9.3l-3,0.2v-1.9h9.6v1.4c-0.5,0-1,0.1-1.3,0.3c-0.4,0.2-0.6,0.5-0.9,0.8
			c-0.2,0.3-0.4,0.7-0.5,1c-0.1,0.4-0.2,0.8-0.2,1.1c0,0.4-0.1,0.7-0.1,1c0,0.3,0,0.6,0,0.8V186z"/>
		<path fill="#333333" d="M199.4,187.9h-2.2l-0.2-9h1.6c0.1,1.3,0.4,2.4,0.8,3.3c0.5,0.9,1.1,1.7,1.8,2.4s1.6,1.1,2.6,1.4
			c1,0.3,2,0.5,3.1,0.5c0.8,0,1.6-0.1,2.3-0.3c0.7-0.2,1.4-0.6,1.9-1c0.6-0.4,1-1,1.3-1.7s0.5-1.4,0.5-2.3c0-1-0.2-1.9-0.7-2.7
			c-0.5-0.7-1.1-1.4-1.8-2c-0.8-0.6-1.6-1.1-2.6-1.6s-1.9-0.9-2.9-1.4c-1-0.5-2-1-2.9-1.5c-1-0.5-1.8-1.1-2.6-1.8
			c-0.8-0.7-1.4-1.5-1.8-2.4s-0.7-2-0.7-3.2c0-0.5,0.1-1,0.2-1.6c0.1-0.6,0.3-1.1,0.5-1.7c0.3-0.6,0.6-1.1,1-1.6
			c0.4-0.5,0.9-1,1.6-1.4c0.6-0.4,1.4-0.7,2.3-0.9s1.9-0.4,3-0.4c0.6,0,1.1,0,1.8,0.1c0.6,0.1,1.3,0.2,1.9,0.4
			c0.6,0.2,1.3,0.4,1.9,0.7c0.6,0.3,1.2,0.6,1.8,1.1l-0.2-1.8h2.2v9.3h-1.5c-0.1-1-0.3-2-0.6-3s-0.8-1.8-1.4-2.6
			c-0.6-0.7-1.4-1.3-2.3-1.8s-2-0.7-3.2-0.7c-0.9,0-1.7,0.1-2.3,0.4c-0.7,0.3-1.2,0.6-1.7,1.1c-0.5,0.5-0.8,1-1,1.6
			c-0.2,0.6-0.4,1.2-0.4,1.9c0,1,0.2,1.8,0.7,2.5c0.5,0.7,1.1,1.3,1.8,1.9c0.8,0.6,1.6,1.1,2.6,1.5c1,0.5,2,0.9,3,1.4s2,1,3,1.5
			c1,0.5,1.8,1.1,2.6,1.8c0.8,0.7,1.4,1.5,1.8,2.4c0.5,0.9,0.7,2,0.7,3.3c0,1.2-0.2,2.3-0.7,3.2c-0.4,1-1.1,1.8-1.9,2.5
			c-0.8,0.7-1.9,1.3-3.1,1.7c-1.2,0.4-2.6,0.6-4.2,0.6c-0.6,0-1.3,0-2-0.1c-0.7-0.1-1.3-0.2-2-0.4c-0.7-0.2-1.3-0.4-1.9-0.7
			c-0.6-0.3-1.2-0.6-1.7-1L199.4,187.9z"/>
		<path fill="#333333" d="M246.6,159c-1.5,0-2.9,0.3-4.2,1c-1.3,0.6-2.5,1.6-3.4,2.7c-1,1.2-1.8,2.6-2.3,4.3
			c-0.6,1.7-0.8,3.6-0.8,5.6c0,1.3,0.1,2.6,0.4,3.8c0.3,1.2,0.7,2.3,1.1,3.3s1.1,1.9,1.8,2.7s1.5,1.5,2.3,2c0.8,0.6,1.7,1,2.7,1.3
			s2,0.4,3,0.4c0.9,0,1.8-0.1,2.8-0.3c0.9-0.2,1.8-0.5,2.6-0.9c0.8-0.4,1.6-0.9,2.4-1.5c0.7-0.6,1.4-1.3,2-2.1l1.1,0.9
			c-0.9,1.3-1.9,2.3-2.9,3.1c-1,0.8-2.1,1.4-3.1,1.9s-2.1,0.8-3.1,1c-1,0.2-2,0.3-2.8,0.3c-2.1,0-4.1-0.4-5.8-1.2s-3.3-1.8-4.6-3.2
			c-1.3-1.4-2.3-2.9-3-4.8c-0.7-1.8-1.1-3.8-1.1-5.9c0-1.3,0.1-2.6,0.4-4c0.3-1.3,0.7-2.6,1.2-3.7c0.5-1.2,1.2-2.3,2-3.3
			c0.8-1,1.8-1.9,2.9-2.6s2.3-1.3,3.7-1.7c1.4-0.4,2.9-0.6,4.5-0.6c1.6,0,3.1,0.2,4.5,0.6c1.4,0.4,2.7,1.1,4.1,1.9l-0.2-2.3h2.3v9.8
			h-1.5c-0.2-1.3-0.5-2.5-0.9-3.5c-0.5-1-1.1-1.9-1.8-2.6c-0.8-0.7-1.6-1.3-2.7-1.6C249,159.1,247.9,159,246.6,159z"/>
		<path fill="#333333" d="M261.3,172.7c0-1.2,0.1-2.4,0.4-3.6s0.7-2.4,1.2-3.6c0.5-1.2,1.2-2.2,2-3.2c0.8-1,1.8-1.9,2.9-2.6
			c1.1-0.8,2.3-1.4,3.7-1.8s2.9-0.7,4.6-0.7c1.7,0,3.3,0.2,4.7,0.7c1.4,0.4,2.7,1,3.8,1.8s2.1,1.6,2.9,2.6c0.8,1,1.5,2.1,2,3.2
			c0.5,1.2,1,2.3,1.2,3.6s0.4,2.4,0.4,3.6c0,1.2-0.1,2.4-0.4,3.6s-0.7,2.4-1.2,3.6c-0.5,1.2-1.2,2.2-2,3.2c-0.8,1-1.8,1.9-2.9,2.7
			c-1.1,0.8-2.3,1.4-3.7,1.8c-1.4,0.4-2.9,0.7-4.6,0.7c-1.8,0-3.4-0.2-4.9-0.6c-1.4-0.4-2.7-1-3.8-1.7c-1.1-0.7-2.1-1.6-2.9-2.6
			c-0.8-1-1.5-2.1-2-3.2c-0.5-1.1-0.9-2.3-1.1-3.6C261.4,175.2,261.3,174,261.3,172.7z M265.4,172c0,1,0.1,2.1,0.3,3.3
			s0.5,2.2,0.9,3.3c0.4,1.1,0.9,2.1,1.5,3.1c0.6,1,1.3,1.8,2.1,2.5s1.7,1.3,2.8,1.7c1,0.4,2.2,0.6,3.4,0.6c1.2,0,2.2-0.2,3.2-0.5
			c1-0.4,1.8-0.8,2.6-1.4s1.4-1.3,2-2.2c0.6-0.8,1.1-1.7,1.4-2.7c0.4-1,0.7-2,0.9-3.1c0.2-1.1,0.3-2.1,0.3-3.1c0-1-0.1-2.2-0.3-3.4
			c-0.2-1.2-0.5-2.4-1-3.5c-0.4-1.1-1-2.1-1.6-3c-0.6-0.9-1.3-1.8-2.2-2.5c-0.8-0.7-1.7-1.2-2.7-1.6c-1-0.4-2.1-0.6-3.3-0.6
			c-1.7,0-3.3,0.4-4.6,1.2c-1.3,0.8-2.4,1.8-3.3,3c-0.9,1.2-1.5,2.6-2,4.2C265.6,168.8,265.4,170.4,265.4,172z"/>
		<path fill="#333333" d="M320.5,174.3c0,1.8-0.2,3.6-0.6,5.3c-0.4,1.7-1,3.2-1.9,4.4c-0.9,1.3-2.1,2.3-3.5,3.1s-3.2,1.1-5.4,1.1
			c-2.3,0-4.2-0.3-5.7-0.9c-1.5-0.6-2.8-1.5-3.7-2.7c-0.9-1.2-1.6-2.8-2-4.7c-0.4-1.9-0.6-4.2-0.6-6.8v-8.6c0-0.4,0-0.8,0-1.2
			c0-0.5,0-0.9,0-1.4c0-0.5,0-0.9,0.1-1.3c0-0.4,0-0.7,0.1-1l-3,0.1v-1.8h9.5v1.4c-0.7,0-1.3,0.1-1.7,0.4c-0.4,0.2-0.7,0.5-0.9,0.9
			c-0.2,0.3-0.3,0.7-0.3,1.1c0,0.4-0.1,0.7-0.1,1v10.7c0,1,0,2.1,0.1,3.1s0.2,2,0.5,2.9c0.2,0.9,0.5,1.8,1,2.6
			c0.4,0.8,0.9,1.5,1.6,2c0.6,0.6,1.4,1,2.4,1.4s2,0.5,3.3,0.5c1.5,0,2.8-0.3,3.9-0.8c1.1-0.6,2-1.3,2.7-2.3s1.2-2.2,1.6-3.6
			c0.3-1.4,0.5-2.9,0.5-4.6l0.2-11.9c0-1.2,0-2.2,0.1-3.1l-3,0.2v-1.9h7.9v1.4c-0.8,0-1.4,0.2-1.8,0.4c-0.4,0.3-0.7,0.6-0.9,1.1
			c-0.2,0.5-0.3,1-0.3,1.6c0,0.6,0,1.3,0,2.1L320.5,174.3z"/>
		<path fill="#333333" d="M336.7,174.3c-0.5,0-0.9,0-1.4,0c-0.5,0-1,0-1.4-0.1v8.2c0,0.8,0,1.4,0,2c0,0.6-0.1,1-0.1,1.4l3.1-0.2v1.8
			h-9.5v-1.4c0.8,0,1.4-0.2,1.8-0.4c0.4-0.3,0.7-0.6,0.8-1.1c0.2-0.5,0.3-1,0.3-1.6c0-0.6,0-1.3,0-2.1v-18.3c0-0.6,0-1.1,0-1.6
			c0-0.5,0.1-1,0.1-1.4l-3.1,0.2v-1.9c1.6,0,3.2,0,4.8-0.1s3.2,0,4.9,0c2,0,3.8,0.2,5.2,0.6s2.6,0.9,3.6,1.5c0.9,0.6,1.6,1.4,2,2.4
			c0.4,0.9,0.7,2,0.7,3.1c0,0.8-0.1,1.7-0.3,2.5s-0.6,1.7-1.2,2.5c-0.6,0.8-1.4,1.5-2.4,2.1c-1,0.6-2.3,1.1-4,1.4
			c0.6,0.4,1,0.9,1.5,1.5c0.4,0.6,0.9,1.3,1.4,2.2l2.9,4.5c0.4,0.6,0.7,1.1,1,1.6s0.7,0.9,1.1,1.3s0.8,0.6,1.3,0.8
			c0.5,0.2,1.1,0.3,1.7,0.3v1.4h-5.3c-0.4-0.4-0.8-0.7-1.1-1.1c-0.3-0.4-0.6-0.7-0.9-1.1c-0.3-0.4-0.6-0.8-0.9-1.2
			c-0.3-0.4-0.6-0.8-0.9-1.3l-2.8-4.5c-0.2-0.3-0.4-0.6-0.6-1c-0.2-0.4-0.4-0.7-0.7-1.1c-0.2-0.4-0.5-0.7-0.7-1
			C337.2,174.9,337,174.6,336.7,174.3z M333.8,172.7c0.4,0,0.9,0.1,1.3,0.1s0.9,0,1.4,0c1.2,0,2.2-0.2,3.2-0.4s1.8-0.7,2.5-1.2
			c0.7-0.5,1.2-1.2,1.6-2.1c0.4-0.8,0.6-1.9,0.6-3.1c0-2.1-0.6-3.7-1.8-4.8s-3.1-1.6-5.7-1.6c-0.8,0-1.4,0.1-1.8,0.4s-0.7,0.6-0.8,1
			c-0.2,0.4-0.3,1-0.3,1.6c0,0.6,0,1.3,0,2.1V172.7z"/>
		<path fill="#333333" d="M376,166.9c0-1.3-0.1-2.3-0.3-3.3c-0.2-0.9-0.5-1.7-0.9-2.3c-0.4-0.6-1-1.1-1.7-1.4
			c-0.7-0.3-1.6-0.5-2.7-0.5l-3.6,0l-0.1,23.1c0,1.5,0,2.6-0.1,3.4l3.5-0.2v1.8h-10v-1.4c0.8,0,1.4-0.2,1.8-0.5s0.7-0.6,0.8-1.1
			s0.2-1,0.2-1.6c0-0.6,0-1.3,0-2l0.1-21.5l-4.4,0c-0.9,0-1.7,0.1-2.3,0.4c-0.6,0.3-1.1,0.7-1.5,1.4c-0.4,0.6-0.7,1.4-0.8,2.3
			c-0.2,0.9-0.3,2-0.3,3.3h-1.6l0.2-9h24.7l0.2,9H376z"/>
	</g>
	<path clip-path="url(#SVGID_2_)" fill="#333333" d="M270,215.2v3.1h6.2v17.4h3.8v-17.4h6.2v-3.1H270z M265.6,217.1
		c-0.7-0.7-1.6-1.2-2.6-1.6c-1-0.4-2.1-0.6-3.4-0.6c-1.1,0-2,0.2-2.9,0.5c-0.8,0.3-1.5,0.8-2.1,1.3c-0.6,0.6-1,1.2-1.3,1.9
		c-0.3,0.7-0.4,1.4-0.4,2.2c0,0.9,0.1,1.7,0.4,2.4c0.3,0.6,0.6,1.2,1.1,1.6c0.4,0.4,1,0.8,1.5,1c0.6,0.3,1.1,0.5,1.7,0.7
		c0.6,0.2,1.2,0.4,1.7,0.5c0.6,0.2,1.1,0.4,1.5,0.6c0.4,0.2,0.8,0.5,1.1,0.9c0.3,0.3,0.4,0.8,0.4,1.3c0,1-0.3,1.7-0.9,2.2
		c-0.6,0.5-1.4,0.8-2.5,0.8c-0.7,0-1.3-0.1-1.8-0.3c-0.5-0.2-0.9-0.4-1.3-0.6c-0.4-0.2-0.7-0.5-1-0.6c-0.3-0.2-0.5-0.3-0.8-0.3
		c-0.2,0-0.3,0-0.5,0.1c-0.1,0.1-0.3,0.2-0.4,0.3l-1.1,1.8c0.4,0.4,0.9,0.8,1.4,1.1c0.5,0.3,1.1,0.6,1.6,0.9
		c0.6,0.2,1.2,0.4,1.8,0.5c0.6,0.1,1.3,0.2,1.9,0.2c1.1,0,2.1-0.2,3-0.5c0.9-0.3,1.6-0.8,2.2-1.4c0.6-0.6,1.1-1.3,1.4-2.1
		c0.3-0.8,0.5-1.7,0.5-2.6c0-0.9-0.1-1.6-0.4-2.2c-0.3-0.6-0.6-1.1-1.1-1.5c-0.4-0.4-1-0.8-1.5-1c-0.6-0.3-1.2-0.5-1.7-0.7
		s-1.2-0.4-1.7-0.6c-0.6-0.2-1.1-0.4-1.5-0.6c-0.4-0.2-0.8-0.5-1.1-0.8c-0.3-0.3-0.4-0.7-0.4-1.2c0-0.4,0.1-0.7,0.2-1
		c0.1-0.3,0.3-0.6,0.6-0.8c0.3-0.2,0.6-0.4,1-0.5c0.4-0.1,0.9-0.2,1.4-0.2c0.6,0,1.1,0.1,1.5,0.2c0.4,0.1,0.8,0.3,1.1,0.5
		c0.3,0.2,0.6,0.3,0.8,0.5c0.2,0.1,0.5,0.2,0.6,0.2c0.2,0,0.4,0,0.5-0.1c0.1-0.1,0.3-0.2,0.4-0.4L265.6,217.1z M236.1,218.2h2.4
		c1.4,0,2.5,0.3,3.2,0.8s1,1.4,1,2.4c0,0.5-0.1,1-0.3,1.4c-0.2,0.4-0.4,0.8-0.8,1.1c-0.3,0.3-0.8,0.6-1.3,0.7
		c-0.5,0.2-1.2,0.3-1.9,0.3h-2.4V218.2z M237.7,227.7c0.4,0,0.7,0.1,0.9,0.2c0.2,0.1,0.4,0.3,0.5,0.5l4.3,6.6
		c0.2,0.2,0.4,0.4,0.6,0.6c0.2,0.1,0.5,0.2,0.8,0.2h3.4l-5.2-7.6c-0.4-0.5-0.8-0.9-1.3-1.2c0.7-0.2,1.4-0.5,1.9-0.9
		c0.6-0.4,1-0.8,1.4-1.3c0.4-0.5,0.7-1.1,0.9-1.7c0.2-0.6,0.3-1.3,0.3-2c0-0.9-0.1-1.7-0.4-2.4c-0.3-0.7-0.8-1.3-1.4-1.9
		c-0.6-0.5-1.5-0.9-2.5-1.2c-1-0.3-2.2-0.4-3.6-0.4h-6.3v20.6h3.8v-8H237.7z M214.9,232.3c-0.6-0.2-1.1-0.6-1.5-1
		c-0.4-0.4-0.7-1-0.9-1.6c-0.2-0.6-0.3-1.3-0.3-2.1v-12.3h-3.8v12.3c0,1.2,0.2,2.4,0.6,3.4c0.4,1,1,1.9,1.7,2.7s1.6,1.3,2.7,1.8
		c1.1,0.4,2.2,0.6,3.6,0.6c1.3,0,2.5-0.2,3.6-0.6c1.1-0.4,1.9-1,2.7-1.8c0.7-0.8,1.3-1.7,1.7-2.7c0.4-1,0.6-2.2,0.6-3.4v-12.3h-3.8
		v12.3c0,0.8-0.1,1.5-0.3,2.1c-0.2,0.6-0.5,1.2-0.9,1.6c-0.4,0.4-0.9,0.8-1.5,1c-0.6,0.2-1.2,0.4-2,0.4
		C216.1,232.7,215.5,232.6,214.9,232.3 M201.6,215.2h-3.9v8.9h-9.6v-8.9h-3.9v20.6h3.9v-9h9.6v9h3.9V215.2z M174,228.5
		c-0.3,0.9-0.7,1.7-1.3,2.3c-0.6,0.6-1.2,1.1-2,1.4c-0.8,0.3-1.7,0.5-2.7,0.5h-4v-14.5h4c1,0,1.9,0.2,2.7,0.5c0.8,0.3,1.5,0.8,2,1.4
		s1,1.4,1.3,2.3c0.3,0.9,0.5,1.9,0.5,3S174.3,227.6,174,228.5 M177.6,221.3c-0.5-1.3-1.2-2.3-2.1-3.3c-0.9-0.9-2-1.6-3.3-2.1
		c-1.3-0.5-2.7-0.8-4.3-0.8h-7.9v20.6h7.9c1.6,0,3-0.3,4.3-0.8c1.3-0.5,2.4-1.2,3.3-2.1c0.9-0.9,1.6-2,2.1-3.3
		c0.5-1.3,0.8-2.6,0.8-4.2C178.4,224,178.1,222.6,177.6,221.3 M137.8,215.2h-2v20.6h3.4v-12.6c0-0.2,0-0.5,0-0.8
		c0-0.3,0-0.6-0.1-0.9l10.8,13.7c0.2,0.2,0.4,0.4,0.6,0.5c0.2,0.1,0.5,0.1,0.8,0.1h2v-20.6h-3.4v12.5c0,0.3,0,0.6,0,0.9
		c0,0.3,0,0.6,0.1,1L139,215.8c-0.1-0.1-0.2-0.2-0.3-0.3c-0.1-0.1-0.2-0.1-0.3-0.2c-0.1,0-0.2-0.1-0.3-0.1
		C138.1,215.2,137.9,215.2,137.8,215.2 M120,221.2c0.1-0.3,0.2-0.7,0.4-1.1c0.1-0.4,0.3-0.9,0.4-1.4c0.1,0.5,0.3,0.9,0.4,1.3
		c0.1,0.4,0.3,0.8,0.4,1.1l2.5,6.8h-6.6L120,221.2z M122.7,215.2h-3.9l-8.1,20.6h3c0.3,0,0.6-0.1,0.8-0.3c0.2-0.2,0.4-0.4,0.4-0.6
		l1.5-4.2h8.5l1.5,4.2c0.1,0.2,0.2,0.5,0.5,0.6c0.2,0.2,0.5,0.2,0.8,0.2h3L122.7,215.2z M106.6,217.1c-0.7-0.7-1.6-1.2-2.6-1.6
		c-1-0.4-2.1-0.6-3.4-0.6c-1.1,0-2,0.2-2.9,0.5c-0.8,0.3-1.5,0.8-2.1,1.3c-0.6,0.6-1,1.2-1.3,1.9c-0.3,0.7-0.4,1.4-0.4,2.2
		c0,0.9,0.1,1.7,0.4,2.4c0.3,0.6,0.6,1.2,1.1,1.6c0.4,0.4,1,0.8,1.5,1c0.6,0.3,1.1,0.5,1.7,0.7c0.6,0.2,1.2,0.4,1.7,0.5
		c0.6,0.2,1.1,0.4,1.5,0.6c0.4,0.2,0.8,0.5,1.1,0.9c0.3,0.3,0.4,0.8,0.4,1.3c0,1-0.3,1.7-0.9,2.2c-0.6,0.5-1.4,0.8-2.5,0.8
		c-0.7,0-1.3-0.1-1.8-0.3c-0.5-0.2-0.9-0.4-1.3-0.6c-0.4-0.2-0.7-0.5-1-0.6c-0.3-0.2-0.5-0.3-0.8-0.3c-0.2,0-0.3,0-0.5,0.1
		c-0.1,0.1-0.3,0.2-0.4,0.3l-1.1,1.8c0.4,0.4,0.9,0.8,1.4,1.1c0.5,0.3,1.1,0.6,1.6,0.9c0.6,0.2,1.2,0.4,1.8,0.5
		c0.6,0.1,1.3,0.2,1.9,0.2c1.1,0,2.1-0.2,3-0.5c0.9-0.3,1.6-0.8,2.2-1.4c0.6-0.6,1.1-1.3,1.4-2.1c0.3-0.8,0.5-1.7,0.5-2.6
		c0-0.9-0.1-1.6-0.4-2.2c-0.3-0.6-0.6-1.1-1.1-1.5c-0.4-0.4-1-0.8-1.5-1c-0.6-0.3-1.2-0.5-1.7-0.7c-0.6-0.2-1.2-0.4-1.7-0.6
		c-0.6-0.2-1.1-0.4-1.5-0.6c-0.4-0.2-0.8-0.5-1.1-0.8c-0.3-0.3-0.4-0.7-0.4-1.2c0-0.4,0.1-0.7,0.2-1c0.1-0.3,0.3-0.6,0.6-0.8
		c0.3-0.2,0.6-0.4,1-0.5c0.4-0.1,0.9-0.2,1.4-0.2c0.6,0,1.1,0.1,1.5,0.2c0.4,0.1,0.8,0.3,1.1,0.5c0.3,0.2,0.6,0.3,0.8,0.5
		c0.2,0.1,0.5,0.2,0.6,0.2c0.2,0,0.4,0,0.5-0.1c0.1-0.1,0.3-0.2,0.4-0.4L106.6,217.1z"/>
</g>
</svg>
